<?xml version="1.0" encoding="UTF-8"?>
<svg version="1.1" xmlns="http://www.w3.org/2000/svg" width="580" height="430">
<path d="M0 0 C3.82726239 1.53855948 6.06927232 3.65040862 8.75 6.75 C9.08 6.09 9.41 5.43 9.75 4.75 C10.41 4.75 11.07 4.75 11.75 4.75 C11.75 3.76 11.75 2.77 11.75 1.75 C16.87481812 -0.86470312 19.97653686 -1.883999 25.75 -0.25 C28.0681362 1.64111111 29.41914015 3.08828031 30.75 5.75 C31.28625 4.780625 31.8225 3.81125 32.375 2.8125 C34.75 -0.25 34.75 -0.25 37.75 -1.3125 C40.75 -1.25 40.75 -1.25 43.125 -0.375 C45.33445571 2.51428823 45.29494563 4.55796367 45.16015625 8.1328125 C44.53655102 12.11200778 43.09137735 15.6703808 41.52734375 19.3671875 C40.45444117 21.85476037 40.45444117 21.85476037 41.75 24.75 C42.74 24.255 42.74 24.255 43.75 23.75 C49.26485403 23.39420297 51.37925035 23.29310325 55.75 26.75 C55.75410889 26.04391602 55.75821777 25.33783203 55.76245117 24.61035156 C55.79537925 21.40605397 55.86602246 18.20365979 55.9375 15 C55.94620117 13.33324219 55.94620117 13.33324219 55.95507812 11.6328125 C56.17187404 3.63545218 56.17187404 3.63545218 58.54296875 0.00390625 C63.60771628 -1.97634217 68.49322722 -1.70580164 73.875 -1.5625 C75.52048828 -1.54799805 75.52048828 -1.54799805 77.19921875 -1.53320312 C85.24080117 -1.41973294 85.24080117 -1.41973294 88.75 -0.25 C90.89762184 2.97143276 91.311068 4.0095467 90.75 7.75 C88.92242827 9.87543563 87.42717674 10.67367853 84.64013672 10.98779297 C82.0870344 11.04559713 79.55265062 11.01102539 77 10.9375 C75.66775391 10.91719727 75.66775391 10.91719727 74.30859375 10.89648438 C72.12177422 10.86121309 69.93620034 10.81192752 67.75 10.75 C67.75 13.06 67.75 15.37 67.75 17.75 C68.67232422 17.68039063 68.67232422 17.68039063 69.61328125 17.609375 C76.20237962 17.31512499 76.20237962 17.31512499 78.875 19.4375 C79.97485924 22.34427086 79.74865722 23.83084813 78.75 26.75 C76.75 28.75 76.75 28.75 74.5859375 28.9453125 C72.30729167 28.88020833 70.02864583 28.81510417 67.75 28.75 C67.75 31.72 67.75 34.69 67.75 37.75 C68.93078125 37.70359375 70.1115625 37.6571875 71.328125 37.609375 C72.88539134 37.57185051 74.44268508 37.53545107 76 37.5 C77.16595703 37.44972656 77.16595703 37.44972656 78.35546875 37.3984375 C84.11835203 37.29992667 84.11835203 37.29992667 87.3046875 39.5703125 C88.75 41.75 88.75 41.75 88.625 44.875 C87.75 47.75 87.75 47.75 85.75 49.75 C81.62248852 50.20815988 77.46249232 50.07400858 73.3125 50.0625 C72.15427734 50.07861328 70.99605469 50.09472656 69.80273438 50.11132812 C68.69349609 50.11197266 67.58425781 50.11261719 66.44140625 50.11328125 C64.91302124 50.11775269 64.91302124 50.11775269 63.35375977 50.12231445 C60.75 49.75 60.75 49.75 58.89428711 48.35229492 C57.75 46.75 57.75 46.75 57.75 44.75 C56.2340625 45.9875 56.2340625 45.9875 54.6875 47.25 C50.94003937 49.9148609 48.39280446 50.43782288 43.75 49.75 C39.18311128 47.83827914 37.258672 44.93111999 34.75 40.75 C34.481875 41.678125 34.21375 42.60625 33.9375 43.5625 C32.22513812 48.15883978 32.22513812 48.15883978 29.75 49.75 C24.5998528 50.3937684 24.5998528 50.3937684 22.05859375 48.46875 C20.75 46.75 20.75 46.75 20.8125 42.875 C21.71825982 36.64790123 23.77125112 30.7046536 25.75 24.75 C24.55375 24.976875 23.3575 25.20375 22.125 25.4375 C17.8790804 25.99657126 15.41446727 25.04029204 11.75 22.75 C11.75 22.09 11.75 21.43 11.75 20.75 C10.76 20.75 9.77 20.75 8.75 20.75 C6.13615296 24.1559219 3.81787491 27.57272461 2.75 31.75 C4.08320866 34.28923626 4.08320866 34.28923626 6.1875 36.625 C9.68645942 41.19004861 9.68645942 41.19004861 10 43.953125 C9.6875 45.875 9.6875 45.875 8.75 48.75 C6.125 50.0625 6.125 50.0625 2.75 50.75 C-1.42710281 47.99311215 -4.25946588 44.77571901 -7.25 40.75 C-7.43175781 41.59884766 -7.43175781 41.59884766 -7.6171875 42.46484375 C-7.78476562 43.19832031 -7.95234375 43.93179688 -8.125 44.6875 C-8.28742188 45.41839844 -8.44984375 46.14929688 -8.6171875 46.90234375 C-9.25 48.75 -9.25 48.75 -11.25 49.75 C-17.64889197 50.21537396 -17.64889197 50.21537396 -20.1875 48.25 C-20.538125 47.755 -20.88875 47.26 -21.25 46.75 C-21.63357666 47.23678223 -22.01715332 47.72356445 -22.41235352 48.22509766 C-24.89436566 50.28470279 -26.45394457 50.13721411 -29.65234375 50.1484375 C-31.23499023 50.15423828 -31.23499023 50.15423828 -32.84960938 50.16015625 C-33.95111328 50.14855469 -35.05261719 50.13695312 -36.1875 50.125 C-37.28513672 50.13660156 -38.38277344 50.14820313 -39.51367188 50.16015625 C-40.57005859 50.15628906 -41.62644531 50.15242188 -42.71484375 50.1484375 C-43.680271 50.14505371 -44.64569824 50.14166992 -45.64038086 50.13818359 C-48.74350796 49.67659017 -50.09852678 49.03122589 -52.25 46.75 C-52.79589844 44.38989258 -52.79589844 44.38989258 -52.859375 41.64453125 C-52.90771484 40.17016602 -52.90771484 40.17016602 -52.95703125 38.66601562 C-52.97121094 37.64185547 -52.98539063 36.61769531 -53 35.5625 C-53.02964844 34.52673828 -53.05929688 33.49097656 -53.08984375 32.42382812 C-53.16057245 29.86580688 -53.21325257 27.30869842 -53.25 24.75 C-54.343125 25.389375 -55.43625 26.02875 -56.5625 26.6875 C-60.42084306 28.9442667 -63.45251497 29.87749978 -67.9375 29.8125 C-69.14986328 29.79896484 -69.14986328 29.79896484 -70.38671875 29.78515625 C-71.00160156 29.77355469 -71.61648437 29.76195312 -72.25 29.75 C-72.21519531 30.85859375 -72.18039063 31.9671875 -72.14453125 33.109375 C-72.11638651 34.57290148 -72.08908708 36.03644439 -72.0625 37.5 C-72.02479492 38.59441406 -72.02479492 38.59441406 -71.98632812 39.7109375 C-71.94213773 42.95156664 -72.0345613 45.33413802 -73.5390625 48.23828125 C-75.25 49.75 -75.25 49.75 -78.8125 50.1875 C-79.946875 50.043125 -81.08125 49.89875 -82.25 49.75 C-84.2619254 46.7321119 -84.50538856 46.11267076 -84.55639648 42.72509766 C-84.57238388 41.92061188 -84.58837128 41.1161261 -84.60484314 40.28726196 C-84.61020584 39.42160614 -84.61556854 38.55595032 -84.62109375 37.6640625 C-84.63012222 36.77012787 -84.6391507 35.87619324 -84.64845276 34.95516968 C-84.66295977 33.06389721 -84.67184312 31.1725745 -84.67553711 29.28125 C-84.68742852 26.39236554 -84.73660368 23.50562075 -84.78710938 20.6171875 C-84.79657436 18.77865625 -84.80380904 16.94011189 -84.80859375 15.1015625 C-84.82812607 14.23995514 -84.84765839 13.37834778 -84.86778259 12.4906311 C-84.83464929 8.07053357 -84.72268784 6.3304804 -81.84008789 2.79052734 C-80.98535889 2.11715332 -80.13062988 1.4437793 -79.25 0.75 C-78.59 0.09 -77.93 -0.57 -77.25 -1.25 C-68.21134668 -1.51217088 -61.31787346 0.04133297 -54.25 5.75 C-53.63125 4.780625 -53.0125 3.81125 -52.375 2.8125 C-50.25 -0.25 -50.25 -0.25 -48.25 -1.25 C-44.31766357 -1.49298891 -40.3765009 -1.43520321 -36.4375 -1.4375 C-34.7968457 -1.45586914 -34.7968457 -1.45586914 -33.12304688 -1.47460938 C-31.5365332 -1.47750977 -31.5365332 -1.47750977 -29.91796875 -1.48046875 C-28.95141357 -1.48457764 -27.9848584 -1.48868652 -26.98901367 -1.49291992 C-24.25 -1.25 -24.25 -1.25 -21.56762695 -0.14575195 C-20.42040161 0.29764526 -20.42040161 0.29764526 -19.25 0.75 C-18.3425 0.275625 -17.435 -0.19875 -16.5 -0.6875 C-10.96254537 -3.3497378 -5.67267309 -1.86234928 0 0 Z M-71.25 10.75 C-72.66577477 11.93424326 -72.66577477 11.93424326 -72.3125 15.3125 C-72.291875 16.446875 -72.27125 17.58125 -72.25 18.75 C-69.64417629 19.68065133 -68.60801776 19.89917407 -66 18.8125 C-65.4225 18.461875 -64.845 18.11125 -64.25 17.75 C-63.99969023 15.33380177 -63.99969023 15.33380177 -64.25 12.75 C-67.20377498 10.38019987 -67.20377498 10.38019987 -71.25 10.75 Z M-26.6015625 9.96875 C-27.87773437 10.03642578 -27.87773437 10.03642578 -29.1796875 10.10546875 C-30.06914062 10.15316406 -30.95859375 10.20085937 -31.875 10.25 C-33.22078125 10.32154297 -33.22078125 10.32154297 -34.59375 10.39453125 C-36.81252545 10.51255122 -39.03127368 10.63106058 -41.25 10.75 C-41.25 13.06 -41.25 15.37 -41.25 17.75 C-38.28 18.08 -35.31 18.41 -32.25 18.75 C-31.125 25.5 -31.125 25.5 -32.25 27.75 C-35.2329661 28.34772099 -38.21330805 28.49337815 -41.25 28.75 C-41.25 31.72 -41.25 34.69 -41.25 37.75 C-40.06921875 37.77578125 -38.8884375 37.8015625 -37.671875 37.828125 C-36.11454677 37.88441397 -34.55725653 37.94176114 -33 38 C-31.83404297 38.02126953 -31.83404297 38.02126953 -30.64453125 38.04296875 C-29.51337891 38.09130859 -29.51337891 38.09130859 -28.359375 38.140625 C-27.32248535 38.1720459 -27.32248535 38.1720459 -26.26464844 38.20410156 C-24.25 38.75 -24.25 38.75 -20.25 42.75 C-20.25 31.86 -20.25 20.97 -20.25 9.75 C-22.37581003 9.75 -24.47865824 9.85552844 -26.6015625 9.96875 Z M-9.25 10.75 C-9.25 14.05 -9.25 17.35 -9.25 20.75 C-5.13581247 20.19204417 -5.13581247 20.19204417 -3.5 17.1875 C-3.0875 16.383125 -2.675 15.57875 -2.25 14.75 C-3.47590192 12.67022703 -3.47590192 12.67022703 -5.25 10.75 C-6.57 10.75 -7.89 10.75 -9.25 10.75 Z M18.75 10.75 C18.75 11.41 18.75 12.07 18.75 12.75 C19.74 12.75 20.73 12.75 21.75 12.75 C21.75 12.09 21.75 11.43 21.75 10.75 C20.76 10.75 19.77 10.75 18.75 10.75 Z M45.75 34.75 C46.08 35.74 46.41 36.73 46.75 37.75 C47.08 36.76 47.41 35.77 47.75 34.75 C47.09 34.75 46.43 34.75 45.75 34.75 Z " fill="#4D9934" transform="translate(264.25,186.25)"/>
<path d="M0 0 C0.66 -0.66 1.32 -1.32 2 -2 C4.05615234 -2.24291992 4.05615234 -2.24291992 6.5859375 -2.23046875 C7.51172607 -2.22950195 8.43751465 -2.22853516 9.39135742 -2.22753906 C10.37595947 -2.21432617 11.36056152 -2.20111328 12.375 -2.1875 C13.86833862 -2.17348145 13.86833862 -2.17348145 15.3918457 -2.15917969 C18.26183103 -2.12268195 21.13056443 -2.06634231 24 -2 C24.71365723 -1.98598145 25.42731445 -1.97196289 26.16259766 -1.95751953 C35.2749005 -1.7250995 35.2749005 -1.7250995 37.81640625 0.81640625 C39.58214392 4.07398829 38.79601967 6.48424647 38 10 C36.33657163 11.66342837 34.2174291 11.36048097 31.9375 11.5625 C31.01839844 11.64628906 30.09929687 11.73007813 29.15234375 11.81640625 C28.44207031 11.87699219 27.73179687 11.93757812 27 12 C26.98018066 13.01425049 26.96036133 14.02850098 26.93994141 15.07348633 C26.86386977 18.83643424 26.77515509 22.59899623 26.68261719 26.36157227 C26.64433382 27.99007549 26.60947976 29.61866309 26.578125 31.24731445 C26.53245998 33.58836014 26.47446923 35.9288253 26.4140625 38.26953125 C26.40251129 38.99775589 26.39096008 39.72598053 26.37905884 40.47627258 C26.27121488 44.16961374 26.10115724 45.84826414 24 49 C17.875 49.4375 17.875 49.4375 15 48 C12.70673168 39.764191 12.74488931 31.22721195 12.875 22.75 C12.88402344 21.61175781 12.89304687 20.47351563 12.90234375 19.30078125 C12.92559603 16.53376039 12.96145255 13.76685005 13 11 C9.04 11 5.08 11 1 11 C0.96261719 12.47210938 0.92523438 13.94421875 0.88671875 15.4609375 C0.82100617 17.43231491 0.75456072 19.40366799 0.6875 21.375 C0.66494141 22.34050781 0.64238281 23.30601562 0.61914062 24.30078125 C0.34228681 31.80100275 -0.17859238 39.79732108 -5.3125 45.625 C-8.61813219 47.31625368 -10.33846283 47.68653822 -14 47 C-21.74193987 41.90164935 -23.68448531 30.43508921 -26 22 C-26.89897348 19.26850365 -27.89803205 16.66308921 -29 14 C-29.66 13.67 -30.32 13.34 -31 13 C-30.97643433 14.47593628 -30.97643433 14.47593628 -30.95239258 15.98168945 C-30.89809022 19.63248508 -30.86364915 23.28324501 -30.83520508 26.93432617 C-30.82011906 28.51446536 -30.7996475 30.09456269 -30.77368164 31.67456055 C-30.73728874 33.94590585 -30.72027238 36.21669759 -30.70703125 38.48828125 C-30.69154739 39.19463211 -30.67606354 39.90098297 -30.66011047 40.6287384 C-30.65911585 43.52779557 -30.66643323 45.51222515 -32.33081055 47.94604492 C-34.95452365 49.60270274 -36.98076918 49.37740385 -40 49 C-42.00837943 47.47344081 -42.87094741 46.49453742 -43.51171875 44.0390625 C-43.99168741 37.44749288 -44.12616457 30.85702982 -44.1875 24.25 C-44.20063232 23.35104004 -44.21376465 22.45208008 -44.22729492 21.52587891 C-44.23644951 13.924755 -43.00610413 7.62547991 -39 1 C-36.75794163 -0.70087187 -35.07773043 -0.98553852 -32.3125 -1.5 C-25.93632328 -0.53755823 -20.80909978 3.51307768 -17 8.625 C-15.3723664 11.37163169 -14.62884115 12.9999037 -14 16 C-13.96261719 15.02417969 -13.92523438 14.04835937 -13.88671875 13.04296875 C-13.82097656 11.77066406 -13.75523437 10.49835938 -13.6875 9.1875 C-13.62949219 7.92292969 -13.57148438 6.65835938 -13.51171875 5.35546875 C-13 2 -13 2 -11.64453125 0.11328125 C-7.38614403 -2.76947494 -4.61147677 -1.47915293 0 0 Z " fill="#89BD35" transform="translate(397,187)"/>
<path d="M0 0 C8.17851954 0.64419846 13.70179782 1.85619968 20.171875 7.08203125 C20.790625 6.11265625 21.409375 5.14328125 22.046875 4.14453125 C24.171875 1.08203125 24.171875 1.08203125 26.171875 0.08203125 C35.02512302 -0.69039979 43.67912261 0.53186593 52.171875 3.08203125 C54.171875 5.08203125 54.171875 5.08203125 54.171875 10.08203125 C46.911875 10.08203125 39.651875 10.08203125 32.171875 10.08203125 C32.666875 14.53703125 32.666875 14.53703125 33.171875 19.08203125 C34.615625 19.02015625 36.059375 18.95828125 37.546875 18.89453125 C40.0078125 18.7890625 40.0078125 18.7890625 42.171875 19.08203125 C44.171875 22.08203125 44.171875 22.08203125 43.859375 25.70703125 C43.171875 29.08203125 43.171875 29.08203125 42.171875 30.08203125 C39.16856482 30.22396462 36.17970366 30.12439503 33.171875 30.08203125 C33.171875 33.05203125 33.171875 36.02203125 33.171875 39.08203125 C38.781875 39.08203125 44.391875 39.08203125 50.171875 39.08203125 C52.171875 43.08203125 52.171875 43.08203125 51.296875 46.33203125 C50.925625 47.23953125 50.554375 48.14703125 50.171875 49.08203125 C29.11249258 49.55234004 29.11249258 49.55234004 22.171875 46.08203125 C21.676875 36.18203125 21.676875 36.18203125 21.171875 26.08203125 C18.861875 27.40203125 16.551875 28.72203125 14.171875 30.08203125 C11.28976198 31.04273559 9.47337456 31.18785008 6.484375 31.14453125 C5.27201172 31.13099609 5.27201172 31.13099609 4.03515625 31.1171875 C3.42027344 31.10558594 2.80539063 31.09398437 2.171875 31.08203125 C2.20667969 32.190625 2.24148437 33.29921875 2.27734375 34.44140625 C2.30548849 35.90493273 2.33278792 37.36847564 2.359375 38.83203125 C2.39708008 39.92644531 2.39708008 39.92644531 2.43554688 41.04296875 C2.47973727 44.28359789 2.3873137 46.66616927 0.8828125 49.5703125 C-0.828125 51.08203125 -0.828125 51.08203125 -4.390625 51.51953125 C-5.525 51.37515625 -6.659375 51.23078125 -7.828125 51.08203125 C-9.8400504 48.06414315 -10.08351356 47.44470201 -10.13452148 44.05712891 C-10.15050888 43.25264313 -10.16649628 42.44815735 -10.18296814 41.61929321 C-10.18833084 40.75363739 -10.19369354 39.88798157 -10.19921875 38.99609375 C-10.20824722 38.10215912 -10.2172757 37.20822449 -10.22657776 36.28720093 C-10.24108477 34.39592846 -10.24996812 32.50460575 -10.25366211 30.61328125 C-10.26555352 27.72439679 -10.31472868 24.837652 -10.36523438 21.94921875 C-10.37469936 20.1106875 -10.38193404 18.27214314 -10.38671875 16.43359375 C-10.40625107 15.57198639 -10.42578339 14.71037903 -10.44590759 13.82266235 C-10.41277429 9.40256482 -10.30081284 7.66251165 -7.41821289 4.12255859 C-6.56348389 3.44918457 -5.70875488 2.77581055 -4.828125 2.08203125 C-2.828125 0.08203125 -2.828125 0.08203125 0 0 Z M3.171875 12.08203125 C1.75610023 13.26627451 1.75610023 13.26627451 2.109375 16.64453125 C2.13 17.77890625 2.150625 18.91328125 2.171875 20.08203125 C4.77769871 21.01268258 5.81385724 21.23120532 8.421875 20.14453125 C8.999375 19.79390625 9.576875 19.44328125 10.171875 19.08203125 C10.42218477 16.66583302 10.42218477 16.66583302 10.171875 14.08203125 C7.21810002 11.71223112 7.21810002 11.71223112 3.171875 12.08203125 Z " fill="#147634" transform="translate(189.828125,184.91796875)"/>
<path d="M0 0 C2.71174738 1.64348326 3.19814543 3.26404787 4.0625 6.25 C4.7225 6.25 5.3825 6.25 6.0625 6.25 C6.35125 6.889375 6.64 7.52875 6.9375 8.1875 C7.89073451 10.40206079 7.89073451 10.40206079 10.0625 11.25 C9.7325 12.57 9.4025 13.89 9.0625 15.25 C8.4025 15.25 7.7425 15.25 7.0625 15.25 C6.7325 18.22 6.4025 21.19 6.0625 24.25 C5.4025 24.25 4.7425 24.25 4.0625 24.25 C4.248125 24.8275 4.43375 25.405 4.625 26 C5.0625 28.25 5.0625 28.25 4.37109375 30.08984375 C3.80372501 32.39698544 3.80372501 32.39698544 5.53125 34.58203125 C6.2015625 35.40058594 6.871875 36.21914062 7.5625 37.0625 C10.99576683 41.65152003 10.99576683 41.65152003 11.30859375 44.45703125 C11 46.375 11 46.375 10.0625 49.25 C7.4375 50.5625 7.4375 50.5625 4.0625 51.25 C-0.11460281 48.49311215 -2.94696588 45.27571901 -5.9375 41.25 C-6.11925781 42.09884766 -6.11925781 42.09884766 -6.3046875 42.96484375 C-6.47226562 43.69832031 -6.63984375 44.43179688 -6.8125 45.1875 C-6.97492188 45.91839844 -7.13734375 46.64929688 -7.3046875 47.40234375 C-7.9375 49.25 -7.9375 49.25 -9.9375 50.25 C-16.33639197 50.71537396 -16.33639197 50.71537396 -18.875 48.75 C-19.225625 48.255 -19.57625 47.76 -19.9375 47.25 C-20.32107666 47.73678223 -20.70465332 48.22356445 -21.09985352 48.72509766 C-23.58186566 50.78470279 -25.14144457 50.63721411 -28.33984375 50.6484375 C-29.39494141 50.65230469 -30.45003906 50.65617187 -31.53710938 50.66015625 C-32.63861328 50.64855469 -33.74011719 50.63695312 -34.875 50.625 C-36.52145508 50.64240234 -36.52145508 50.64240234 -38.20117188 50.66015625 C-39.25755859 50.65628906 -40.31394531 50.65242188 -41.40234375 50.6484375 C-42.85048462 50.64336182 -42.85048462 50.64336182 -44.32788086 50.63818359 C-47.34939774 50.18872978 -48.75579057 49.36054223 -50.9375 47.25 C-50.9375 46.59 -50.9375 45.93 -50.9375 45.25 C-50.256875 45.38277344 -49.57625 45.51554687 -48.875 45.65234375 C-40.23942558 47.22558005 -31.6876128 47.82804025 -22.9375 48.25 C-22.2775 45.94 -21.6175 43.63 -20.9375 41.25 C-20.6075 41.25 -20.2775 41.25 -19.9375 41.25 C-19.6075 31.02 -19.2775 20.79 -18.9375 10.25 C-19.9275 10.745 -19.9275 10.745 -20.9375 11.25 C-22.38598582 11.33342159 -23.83820869 11.35732861 -25.2890625 11.34765625 C-26.13984375 11.34443359 -26.990625 11.34121094 -27.8671875 11.33789062 C-28.75664062 11.32951172 -29.64609375 11.32113281 -30.5625 11.3125 C-31.90828125 11.30573242 -31.90828125 11.30573242 -33.28125 11.29882812 C-35.50006648 11.28702591 -37.71875018 11.27056155 -39.9375 11.25 C-40.2675 11.91 -40.5975 12.57 -40.9375 13.25 C-40.9375 11.93 -40.9375 10.61 -40.9375 9.25 C-33.6775 9.25 -26.4175 9.25 -18.9375 9.25 C-19.5975 7.27 -20.2575 5.29 -20.9375 3.25 C-24.2320875 1.86896913 -24.2320875 1.86896913 -28.0625 1.375 C-29.34382813 1.15070313 -30.62515625 0.92640625 -31.9453125 0.6953125 C-32.93273437 0.54835937 -33.92015625 0.40140625 -34.9375 0.25 C-34.9375 -0.08 -34.9375 -0.41 -34.9375 -0.75 C-33.04198978 -0.80441656 -31.1460208 -0.84298035 -29.25 -0.875 C-28.19425781 -0.89820313 -27.13851562 -0.92140625 -26.05078125 -0.9453125 C-22.9375 -0.75 -22.9375 -0.75 -20.21484375 0.34765625 C-19.46332031 0.64542969 -18.71179688 0.94320312 -17.9375 1.25 C-17.03 0.775625 -16.1225 0.30125 -15.1875 -0.1875 C-9.97378026 -2.69409603 -5.43832448 -1.38850838 0 0 Z M-7.9375 11.25 C-7.9375 14.55 -7.9375 17.85 -7.9375 21.25 C-3.82331247 20.69204417 -3.82331247 20.69204417 -2.1875 17.6875 C-1.775 16.883125 -1.3625 16.07875 -0.9375 15.25 C-2.16340192 13.17022703 -2.16340192 13.17022703 -3.9375 11.25 C-5.2575 11.25 -6.5775 11.25 -7.9375 11.25 Z " fill="#2E8534" transform="translate(262.9375,185.75)"/>
<path d="M0 0 C1.09699219 0.00966797 2.19398438 0.01933594 3.32421875 0.02929688 C11.36580117 0.14276706 11.36580117 0.14276706 14.875 1.3125 C17.02262184 4.53393276 17.436068 5.5720467 16.875 9.3125 C15.04742827 11.43793563 13.55217674 12.23617853 10.76513672 12.55029297 C8.2120344 12.60809713 5.67765062 12.57352539 3.125 12.5 C2.23683594 12.48646484 1.34867187 12.47292969 0.43359375 12.45898438 C-1.75322578 12.42371309 -3.93879966 12.37442752 -6.125 12.3125 C-6.125 14.6225 -6.125 16.9325 -6.125 19.3125 C-5.51011719 19.26609375 -4.89523437 19.2196875 -4.26171875 19.171875 C2.32737962 18.87762499 2.32737962 18.87762499 5 21 C6.09985924 23.90677086 5.87365722 25.39334813 4.875 28.3125 C2.875 30.3125 2.875 30.3125 0.7109375 30.5078125 C-2.70703125 30.41015625 -2.70703125 30.41015625 -6.125 30.3125 C-6.125 33.2825 -6.125 36.2525 -6.125 39.3125 C-4.94421875 39.26609375 -3.7634375 39.2196875 -2.546875 39.171875 C-0.98960866 39.13435051 0.56768508 39.09795107 2.125 39.0625 C2.90230469 39.02898437 3.67960937 38.99546875 4.48046875 38.9609375 C10.24335203 38.86242667 10.24335203 38.86242667 13.4296875 41.1328125 C14.875 43.3125 14.875 43.3125 14.75 46.4375 C13.875 49.3125 13.875 49.3125 11.875 51.3125 C7.74748852 51.77065988 3.58749232 51.63650858 -0.5625 51.625 C-1.72072266 51.64111328 -2.87894531 51.65722656 -4.07226562 51.67382812 C-5.18150391 51.67447266 -6.29074219 51.67511719 -7.43359375 51.67578125 C-8.96197876 51.68025269 -8.96197876 51.68025269 -10.52124023 51.68481445 C-13.125 51.3125 -13.125 51.3125 -14.98071289 49.91479492 C-16.125 48.3125 -16.125 48.3125 -16.125 46.3125 C-17.135625 47.1375 -18.14625 47.9625 -19.1875 48.8125 C-22.90547178 51.47465829 -25.51388597 51.93322689 -30.125 51.3125 C-31.115 50.6525 -32.105 49.9925 -33.125 49.3125 C-30.485 48.6525 -27.845 47.9925 -25.125 47.3125 C-25.125 45.3325 -25.125 43.3525 -25.125 41.3125 C-24.135 41.3125 -23.145 41.3125 -22.125 41.3125 C-22.125 41.9725 -22.125 42.6325 -22.125 43.3125 C-20.805 43.3125 -19.485 43.3125 -18.125 43.3125 C-18.62 41.8275 -18.62 41.8275 -19.125 40.3125 C-19.24746664 38.83473593 -19.35013257 37.35525392 -19.4375 35.875 C-19.77177932 32.76012449 -20.02137625 31.46601667 -21.8125 28.8125 C-24.59029653 27.01068603 -26.8516502 26.61007725 -30.125 26.3125 C-30.125 25.9825 -30.125 25.6525 -30.125 25.3125 C-22.390625 24.92578125 -22.390625 24.92578125 -18.125 28.3125 C-18.11883667 27.25337402 -18.11883667 27.25337402 -18.11254883 26.17285156 C-18.07962075 22.96855397 -18.00897754 19.76615979 -17.9375 16.5625 C-17.92879883 14.89574219 -17.92879883 14.89574219 -17.91992188 13.1953125 C-17.70312596 5.19795218 -17.70312596 5.19795218 -15.33203125 1.56640625 C-10.26728372 -0.41384217 -5.38177278 -0.14330164 0 0 Z " fill="#57A22D" transform="translate(338.125,184.6875)"/>
<path d="M0 0 C0.99 0.33 1.98 0.66 3 1 C3 1.66 3 2.32 3 3 C3.99 3.33 4.98 3.66 6 4 C6.73046875 6.06640625 6.73046875 6.06640625 7.1875 8.5625 C7.42533203 9.80193359 7.42533203 9.80193359 7.66796875 11.06640625 C7.77753906 11.70449219 7.88710938 12.34257812 8 13 C8.66 13 9.32 13 10 13 C10 13.66 10 14.32 10 15 C10.66 15.33 11.32 15.66 12 16 C11.67 16.66 11.34 17.32 11 18 C12.32 18.33 13.64 18.66 15 19 C15 18.34 15 17.68 15 17 C15.66 17 16.32 17 17 17 C17.33 11.72 17.66 6.44 18 1 C19.32 0.67 20.64 0.34 22 0 C22.99 0.66 23.98 1.32 25 2 C25.1875 5.625 25.1875 5.625 25 9 C23.02 9.99 23.02 9.99 21 11 C21.81328483 15.75532423 22.58266541 20.10112551 24.625 24.5 C26.42991501 29.09432911 26.26470625 33.12744413 26 38 C25.34 38 24.68 38 24 38 C23.773125 38.804375 23.54625 39.60875 23.3125 40.4375 C22 43 22 43 19.625 44 C16.3677448 44 15.41526748 43.09323182 13 41 C11.515 40.505 11.515 40.505 10 40 C8.68359375 37.3046875 8.68359375 37.3046875 7.4375 33.875 C7.00566406 32.69292969 6.57382812 31.51085937 6.12890625 30.29296875 C4.96217703 26.8896721 3.95226516 23.46896596 3 20 C2.10102652 17.26850365 1.10196795 14.66308921 0 12 C-0.66 11.67 -1.32 11.34 -2 11 C-2.33 17.27 -2.66 23.54 -3 30 C-5.97 30 -8.94 30 -12 30 C-13.70902446 21.45487769 -13.53860424 12.38218381 -11 4 C-7.60253478 -0.28438245 -5.39981359 -0.49089214 0 0 Z " fill="#86B739" transform="translate(368,189)"/>
<path d="M0 0 C2.73883753 3.26893511 3 4.6660855 3 9 C1.68 8.67 0.36 8.34 -1 8 C-1 7.34 -1 6.68 -1 6 C-1.66 6 -2.32 6 -3 6 C-3.66 5.34 -4.32 4.68 -5 4 C-7.00693006 4.19782865 -7.00693006 4.19782865 -9.125 4.875 C-11.043125 5.431875 -11.043125 5.431875 -13 6 C-13 9.63 -13 13.26 -13 17 C-9.04 17 -5.08 17 -1 17 C-0.67 16.01 -0.34 15.02 0 14 C0.66 14 1.32 14 2 14 C3.31626692 17.61973402 4 20.09567131 4 24 C-1.12919186 26.10428384 -5.5610835 26.21755666 -11 26 C-10.96519531 27.10859375 -10.93039063 28.2171875 -10.89453125 29.359375 C-10.86638651 30.82290148 -10.83908708 32.28644439 -10.8125 33.75 C-10.77479492 34.84441406 -10.77479492 34.84441406 -10.73632812 35.9609375 C-10.69213773 39.20156664 -10.7845613 41.58413802 -12.2890625 44.48828125 C-14 46 -14 46 -17.5625 46.4375 C-18.696875 46.293125 -19.83125 46.14875 -21 46 C-23.62202981 42.06695528 -23.25148527 38.73374931 -23.1953125 34.17578125 C-23.1924826 33.31438034 -23.18965271 32.45297943 -23.18673706 31.56547546 C-23.17554237 28.81434231 -23.15043921 26.06353475 -23.125 23.3125 C-23.11496927 21.44727033 -23.10584359 19.58203555 -23.09765625 17.71679688 C-23.07560538 13.1444058 -23.04108049 8.57225811 -23 4 C-22.34 3.67 -21.68 3.34 -21 3 C-20.34 3.33 -19.68 3.66 -19 4 C-18.67 3.01 -18.34 2.02 -18 1 C-16.39125 1.061875 -16.39125 1.061875 -14.75 1.125 C-11.17501192 1.28081014 -11.17501192 1.28081014 -9 -0.0625 C-5.74263835 -1.58938827 -3.38701731 -0.92373199 0 0 Z " fill="#0A6B38" transform="translate(203,190)"/>
<path d="M0 0 C1.09699219 0.00966797 2.19398438 0.01933594 3.32421875 0.02929688 C11.36580117 0.14276706 11.36580117 0.14276706 14.875 1.3125 C17.02262184 4.53393276 17.436068 5.5720467 16.875 9.3125 C15.06314594 11.3740961 13.59524993 12.22754923 10.85888672 12.55029297 C8.44082759 12.60799955 6.0425725 12.57366041 3.625 12.5 C2.78453125 12.48646484 1.9440625 12.47292969 1.078125 12.45898438 C-0.98985938 12.42373464 -3.05751271 12.3699302 -5.125 12.3125 C-5.125 11.9825 -5.125 11.6525 -5.125 11.3125 C3.785 10.3225 3.785 10.3225 12.875 9.3125 C13.205 7.3325 13.535 5.3525 13.875 3.3125 C4.635 3.3125 -4.605 3.3125 -14.125 3.3125 C-13.795 17.8325 -13.465 32.3525 -13.125 47.3125 C-10.69112247 48.52943876 -8.70661154 48.63209896 -6 48.875 C-5.08992188 48.95878906 -4.17984375 49.04257813 -3.2421875 49.12890625 C-2.54351562 49.18949219 -1.84484375 49.25007813 -1.125 49.3125 C-1.455 47.3325 -1.785 45.3525 -2.125 43.3125 C-3.445 42.9825 -4.765 42.6525 -6.125 42.3125 C-6.125 41.3225 -6.125 40.3325 -6.125 39.3125 C-3.37394578 39.20437997 -0.62714913 39.12515055 2.125 39.0625 C2.90230469 39.02898437 3.67960937 38.99546875 4.48046875 38.9609375 C10.24335203 38.86242667 10.24335203 38.86242667 13.4296875 41.1328125 C14.875 43.3125 14.875 43.3125 14.75 46.4375 C13.875 49.3125 13.875 49.3125 11.875 51.3125 C7.74748852 51.77065988 3.58749232 51.63650858 -0.5625 51.625 C-1.72072266 51.64111328 -2.87894531 51.65722656 -4.07226562 51.67382812 C-5.18150391 51.67447266 -6.29074219 51.67511719 -7.43359375 51.67578125 C-8.96197876 51.68025269 -8.96197876 51.68025269 -10.52124023 51.68481445 C-13.125 51.3125 -13.125 51.3125 -14.98071289 49.91479492 C-16.125 48.3125 -16.125 48.3125 -16.125 46.3125 C-17.135625 47.1375 -18.14625 47.9625 -19.1875 48.8125 C-22.90547178 51.47465829 -25.51388597 51.93322689 -30.125 51.3125 C-31.115 50.6525 -32.105 49.9925 -33.125 49.3125 C-30.485 48.6525 -27.845 47.9925 -25.125 47.3125 C-25.125 45.3325 -25.125 43.3525 -25.125 41.3125 C-24.135 41.3125 -23.145 41.3125 -22.125 41.3125 C-22.125 41.9725 -22.125 42.6325 -22.125 43.3125 C-20.805 43.3125 -19.485 43.3125 -18.125 43.3125 C-18.62 41.8275 -18.62 41.8275 -19.125 40.3125 C-19.24746664 38.83473593 -19.35013257 37.35525392 -19.4375 35.875 C-19.77177932 32.76012449 -20.02137625 31.46601667 -21.8125 28.8125 C-24.59029653 27.01068603 -26.8516502 26.61007725 -30.125 26.3125 C-30.125 25.9825 -30.125 25.6525 -30.125 25.3125 C-22.390625 24.92578125 -22.390625 24.92578125 -18.125 28.3125 C-18.11883667 27.25337402 -18.11883667 27.25337402 -18.11254883 26.17285156 C-18.07962075 22.96855397 -18.00897754 19.76615979 -17.9375 16.5625 C-17.92879883 14.89574219 -17.92879883 14.89574219 -17.91992188 13.1953125 C-17.70312596 5.19795218 -17.70312596 5.19795218 -15.33203125 1.56640625 C-10.26728372 -0.41384217 -5.38177278 -0.14330164 0 0 Z " fill="#74B249" transform="translate(338.125,184.6875)"/>
<path d="M0 0 C0 1.32 0 2.64 0 4 C-0.53625 3.71125 -1.0725 3.4225 -1.625 3.125 C-4.35234445 1.8331 -7.13302341 0.93471292 -10 0 C-10.09087891 1.57201172 -10.09087891 1.57201172 -10.18359375 3.17578125 C-10.26801738 4.55470048 -10.35266447 5.93360605 -10.4375 7.3125 C-10.47681641 8.00279297 -10.51613281 8.69308594 -10.55664062 9.40429688 C-10.74927415 12.47161535 -11.02322717 15.06968152 -12 18 C-12.66 18 -13.32 18 -14 18 C-14 18.66 -14 19.32 -14 20 C-15.32 19.67 -16.64 19.34 -18 19 C-18.495 16.525 -18.495 16.525 -19 14 C-19.66 14 -20.32 14 -21 14 C-23 11 -23 11 -23.5 7.875 C-23.7475 6.451875 -23.7475 6.451875 -24 5 C-24.66 4.67 -25.32 4.34 -26 4 C-26 3.34 -26 2.68 -26 2 C-27.60332791 1.91878076 -29.20784026 1.86070866 -30.8125 1.8125 C-32.15248047 1.76029297 -32.15248047 1.76029297 -33.51953125 1.70703125 C-36.0041399 1.80856988 -36.0041399 1.80856988 -37.75 3.1796875 C-42.75210861 10.46400817 -41.22321629 22.61698819 -41 31 C-39.72125 30.814375 -38.4425 30.62875 -37.125 30.4375 C-33.25 29.875 -33.25 29.875 -31 31 C-30.91902676 33.27024968 -30.86082296 35.54132075 -30.8125 37.8125 C-30.77769531 39.07707031 -30.74289062 40.34164062 -30.70703125 41.64453125 C-31 45 -31 45 -32.32421875 46.92578125 C-34.94811347 48.60776504 -36.96804552 48.37899431 -40 48 C-42.00837943 46.47344081 -42.87094741 45.49453742 -43.51171875 43.0390625 C-43.99168741 36.44749288 -44.12616457 29.85702982 -44.1875 23.25 C-44.20063232 22.35104004 -44.21376465 21.45208008 -44.22729492 20.52587891 C-44.23644951 12.924755 -43.00610413 6.62547991 -39 0 C-36.75794163 -1.70087187 -35.07773043 -1.98553852 -32.3125 -2.5 C-25.93632328 -1.53755823 -20.80909978 2.51307768 -17 7.625 C-15.3723664 10.37163169 -14.62884115 11.9999037 -14 15 C-13.96261719 14.02417969 -13.92523438 13.04835937 -13.88671875 12.04296875 C-13.82097656 10.77066406 -13.75523437 9.49835938 -13.6875 8.1875 C-13.62949219 6.92292969 -13.57148438 5.65835938 -13.51171875 4.35546875 C-13 1 -13 1 -11.64453125 -0.88671875 C-7.09886814 -3.96394912 -4.60877485 -2.1739504 0 0 Z " fill="#87B839" transform="translate(397,188)"/>
<path d="M0 0 C3.5 1.375 3.5 1.375 6 3 C6.928125 3.556875 7.85625 4.11375 8.8125 4.6875 C9.8953125 5.3371875 9.8953125 5.3371875 11 6 C11.33 6 11.66 6 12 6 C12 12.27 12 18.54 12 25 C10.35 25.66 8.7 26.32 7 27 C5 20.25 5 20.25 5 18 C4.38125 18.66 3.7625 19.32 3.125 20 C-1.18096607 22.75581828 -5.00063575 22.564743 -10 22 C-11 21 -11 21 -11.09765625 18.49609375 C-11.08605469 17.48675781 -11.07445312 16.47742188 -11.0625 15.4375 C-11.05347656 14.42558594 -11.04445312 13.41367188 -11.03515625 12.37109375 C-11.02355469 11.58863281 -11.01195312 10.80617187 -11 10 C-9.54494642 9.47007308 -8.08581873 8.9513211 -6.625 8.4375 C-5.40683594 8.00244141 -5.40683594 8.00244141 -4.1640625 7.55859375 C-2 7 -2 7 0 8 C0 8.66 0 9.32 0 10 C0.66 10 1.32 10 2 10 C2.33 10.66 2.66 11.32 3 12 C3.99 12.33 4.98 12.66 6 13 C5.01 10.36 4.02 7.72 3 5 C-1.59949112 4.11548248 -3.91440736 3.82952891 -8 6 C-10.33203812 6.0777346 -12.66839059 6.08967728 -15 6 C-15.33 6.66 -15.66 7.32 -16 8 C-17.32 8 -18.64 8 -20 8 C-16.81696992 -2.41718934 -9.18719144 -1.63353593 0 0 Z M-7 11 C-8.41577477 12.18424326 -8.41577477 12.18424326 -8.0625 15.5625 C-8.041875 16.696875 -8.02125 17.83125 -8 19 C-5.39417629 19.93065133 -4.35801776 20.14917407 -1.75 19.0625 C-1.1725 18.711875 -0.595 18.36125 0 18 C0.25030977 15.58380177 0.25030977 15.58380177 0 13 C-2.95377498 10.63019987 -2.95377498 10.63019987 -7 11 Z " fill="#1F7240" transform="translate(200,186)"/>
<path d="M0 0 C0.38095093 1.90382385 0.38095093 1.90382385 0.38818359 4.07250977 C0.39764008 4.88667862 0.40709656 5.70084747 0.4168396 6.53968811 C0.41076691 7.4147551 0.40469421 8.28982208 0.3984375 9.19140625 C0.40130768 10.0924559 0.40417786 10.99350555 0.40713501 11.92185974 C0.40917595 13.8257612 0.40364397 15.72968361 0.39111328 17.63354492 C0.37504127 20.55499886 0.39097042 23.4750732 0.41015625 26.39648438 C0.40817419 28.24479473 0.40433129 30.09310423 0.3984375 31.94140625 C0.40754654 33.25704308 0.40754654 33.25704308 0.4168396 34.59925842 C0.38818359 37.05688477 0.38818359 37.05688477 0 41 C-3 43 -3 43 -6 43 C-8.28831108 38.42337784 -7.18502705 32.02502708 -7.1875 27 C-7.19974609 25.6903125 -7.21199219 24.380625 -7.22460938 23.03125 C-7.22654297 21.7834375 -7.22847656 20.535625 -7.23046875 19.25 C-7.23457764 18.10015625 -7.23868652 16.9503125 -7.24291992 15.765625 C-7 13 -7 13 -5 11 C-4.67 12.32 -4.34 13.64 -4 15 C-3.01 15 -2.02 15 -1 15 C-1.20496094 14.32453125 -1.40992188 13.6490625 -1.62109375 12.953125 C-1.89050781 12.06109375 -2.15992188 11.1690625 -2.4375 10.25 C-2.70433594 9.36828125 -2.97117187 8.4865625 -3.24609375 7.578125 C-3.88468494 5.39434165 -4.46775833 3.21164502 -5 1 C-5.99 1 -6.98 1 -8 1 C-8 1.99 -8 2.98 -8 4 C-11.63 4.33 -15.26 4.66 -19 5 C-19 4.34 -19 3.68 -19 3 C-19.66 3 -20.32 3 -21 3 C-21 1.35 -21 -0.3 -21 -2 C-18.06296475 -2.24849534 -15.12713668 -2.47448285 -12.1875 -2.6875 C-10.93743164 -2.79674805 -10.93743164 -2.79674805 -9.66210938 -2.90820312 C-8.85966797 -2.96298828 -8.05722656 -3.01777344 -7.23046875 -3.07421875 C-6.49207764 -3.13182373 -5.75368652 -3.18942871 -4.99291992 -3.2487793 C-2.34677243 -2.91845659 -1.65336592 -2.05413111 0 0 Z " fill="#8DC62B" transform="translate(420,191)"/>
<path d="M0 0 C0.33 0 0.66 0 1 0 C1.33 1.98 1.66 3.96 2 6 C2.5775 5.855625 3.155 5.71125 3.75 5.5625 C5.83333333 5.04166667 7.91666667 4.52083333 10 4 C10 5.32 10 6.64 10 8 C10.91523438 7.90460938 11.83046875 7.80921875 12.7734375 7.7109375 C14.55621094 7.54464844 14.55621094 7.54464844 16.375 7.375 C17.55835938 7.25898438 18.74171875 7.14296875 19.9609375 7.0234375 C20.96382812 7.01570312 21.96671875 7.00796875 23 7 C23.66 7.66 24.32 8.32 25 9 C19.87080814 11.10428384 15.4389165 11.21755666 10 11 C10.03480469 12.10859375 10.06960937 13.2171875 10.10546875 14.359375 C10.13361349 15.82290148 10.16091292 17.28644439 10.1875 18.75 C10.22520508 19.84441406 10.22520508 19.84441406 10.26367188 20.9609375 C10.30786227 24.20156664 10.2154387 26.58413802 8.7109375 29.48828125 C7 31 7 31 3.4375 31.4375 C2.303125 31.293125 1.16875 31.14875 0 31 C-2.52775351 27.20836973 -2.22443035 24.19125969 -2.125 19.8125 C-2.11597656 19.06291016 -2.10695312 18.31332031 -2.09765625 17.54101562 C-2.07412578 15.69387346 -2.03825561 13.84689588 -2 12 C-1.34 12 -0.68 12 0 12 C0 8.04 0 4.08 0 0 Z " fill="#0C693C" transform="translate(182,205)"/>
<path d="M0 0 C16.9971152 -0.16997115 16.9971152 -0.16997115 24.9375 0.25 C25.85402344 0.29640625 26.77054687 0.3428125 27.71484375 0.390625 C30 1 30 1 31.83203125 2.81640625 C33.57511521 6.07521539 32.79425072 8.49205933 32 12 C30.33657163 13.66342837 28.2174291 13.36048097 25.9375 13.5625 C25.01839844 13.64628906 24.09929687 13.73007813 23.15234375 13.81640625 C22.44207031 13.87699219 21.73179687 13.93757812 21 14 C20.98018066 15.01425049 20.96036133 16.02850098 20.93994141 17.07348633 C20.86386977 20.83643424 20.77515509 24.59899623 20.68261719 28.36157227 C20.64433382 29.99007549 20.60947976 31.61866309 20.578125 33.24731445 C20.53245998 35.58836014 20.47446923 37.9288253 20.4140625 40.26953125 C20.39673569 41.36186821 20.39673569 41.36186821 20.37905884 42.47627258 C20.27121488 46.16961374 20.10115724 47.84826414 18 51 C11.875 51.4375 11.875 51.4375 9 50 C6.70673168 41.764191 6.74488931 33.22721195 6.875 24.75 C6.88402344 23.61175781 6.89304687 22.47351563 6.90234375 21.30078125 C6.9255972 18.53362119 6.95827132 15.7669324 7 13 C7.66 13 8.32 13 9 13 C10.15242996 16.45728988 10.09710256 19.10519685 10.0625 22.75 C10.05871338 23.40452148 10.05492676 24.05904297 10.05102539 24.73339844 C10.0346922 27.52937462 10.00652427 30.32520388 9.97949219 33.12109375 C9.9614213 35.16405564 9.94931946 37.20699393 9.9375 39.25 C9.92589844 40.47203125 9.91429687 41.6940625 9.90234375 42.953125 C9.85621696 46.04477515 9.85621696 46.04477515 11 49 C12.65 48.34 14.3 47.68 16 47 C16.05534912 46.09233887 16.11069824 45.18467773 16.16772461 44.24951172 C16.37584179 40.86116472 16.58676769 37.47301628 16.79956055 34.08496094 C16.89084537 32.62246504 16.98103131 31.15990009 17.07006836 29.69726562 C17.19872279 27.5870454 17.33141218 25.47711041 17.46484375 23.3671875 C17.58267212 21.46622314 17.58267212 21.46622314 17.70288086 19.52685547 C17.97444853 16.30330039 18.41578116 13.1800337 19 10 C21.31 10 23.62 10 26 10 C25.34 7.36 24.68 4.72 24 2 C16.41 2 8.82 2 1 2 C0.67 1.34 0.34 0.68 0 0 Z " fill="#ACC866" transform="translate(403,185)"/>
<path d="M0 0 C1.89551022 -0.05441656 3.7914792 -0.09298035 5.6875 -0.125 C6.74324219 -0.14820313 7.79898438 -0.17140625 8.88671875 -0.1953125 C12.03364989 0.00211103 14.12132071 0.8005503 17 2 C19.2857711 1.23396041 19.2857711 1.23396041 21 0 C21 0.99 21 1.98 21 3 C20.01 3.66 19.02 4.32 18 5 C17.60183837 6.9345405 17.60183837 6.9345405 17.7512207 9.17431641 C17.77146805 10.03505768 17.79171539 10.89579895 17.81257629 11.78262329 C17.84993393 12.71287323 17.88729156 13.64312317 17.92578125 14.6015625 C17.95222214 15.55316254 17.97866302 16.50476257 18.00590515 17.48519897 C18.09386026 20.53242392 18.20294236 23.57848253 18.3125 26.625 C18.37573879 28.68745785 18.43760549 30.74995827 18.49804688 32.8125 C18.64943214 37.87563166 18.81977136 42.93781628 19 48 C21.64 48.33 24.28 48.66 27 49 C25 51 25 51 21.5625 51.3125 C18 51 18 51 16.0625 49.5 C15.711875 49.005 15.36125 48.51 15 48 C14.61642334 48.48678223 14.23284668 48.97356445 13.83764648 49.47509766 C11.35563434 51.53470279 9.79605543 51.38721411 6.59765625 51.3984375 C5.54255859 51.40230469 4.48746094 51.40617187 3.40039062 51.41015625 C2.29888672 51.39855469 1.19738281 51.38695312 0.0625 51.375 C-1.58395508 51.39240234 -1.58395508 51.39240234 -3.26367188 51.41015625 C-4.32005859 51.40628906 -5.37644531 51.40242188 -6.46484375 51.3984375 C-7.91298462 51.39336182 -7.91298462 51.39336182 -9.39038086 51.38818359 C-12.41189774 50.93872978 -13.81829057 50.11054223 -16 48 C-16 47.34 -16 46.68 -16 46 C-15.319375 46.13277344 -14.63875 46.26554687 -13.9375 46.40234375 C-5.30192558 47.97558005 3.2498872 48.57804025 12 49 C12.66 46.69 13.32 44.38 14 42 C14.33 42 14.66 42 15 42 C15.33 31.77 15.66 21.54 16 11 C15.01 11.495 15.01 11.495 14 12 C12.55151418 12.08342159 11.09929131 12.10732861 9.6484375 12.09765625 C8.79765625 12.09443359 7.946875 12.09121094 7.0703125 12.08789062 C6.18085938 12.07951172 5.29140625 12.07113281 4.375 12.0625 C3.02921875 12.05573242 3.02921875 12.05573242 1.65625 12.04882812 C-0.56256648 12.03702591 -2.78125018 12.02056155 -5 12 C-5.33 12.66 -5.66 13.32 -6 14 C-6 12.68 -6 11.36 -6 10 C1.26 10 8.52 10 16 10 C15.34 8.02 14.68 6.04 14 4 C10.7054125 2.61896913 10.7054125 2.61896913 6.875 2.125 C5.59367187 1.90070313 4.31234375 1.67640625 2.9921875 1.4453125 C2.00476563 1.29835937 1.01734375 1.15140625 0 1 C0 0.67 0 0.34 0 0 Z " fill="#70A175" transform="translate(228,185)"/>
<path d="M0 0 C2 2 2 2 2 7 C-5.26 7 -12.52 7 -20 7 C-19.67 9.97 -19.34 12.94 -19 16 C-17.55625 15.938125 -16.1125 15.87625 -14.625 15.8125 C-12.1640625 15.70703125 -12.1640625 15.70703125 -10 16 C-8 19 -8 19 -8.3125 22.625 C-9 26 -9 26 -10 27 C-11.51928038 27.07179964 -13.04167482 27.08392007 -14.5625 27.0625 C-15.38878906 27.05347656 -16.21507812 27.04445312 -17.06640625 27.03515625 C-18.02353516 27.01775391 -18.02353516 27.01775391 -19 27 C-19 26.67 -19 26.34 -19 26 C-17.02 26 -15.04 26 -13 26 C-13 25.34 -13 24.68 -13 24 C-12.34 23.67 -11.68 23.34 -11 23 C-11.33 21.02 -11.66 19.04 -12 17 C-13.65 17 -15.3 17 -17 17 C-17.33 17.99 -17.66 18.98 -18 20 C-18.99 19.67 -19.98 19.34 -21 19 C-22.3475324 14.95740281 -22.55411168 11.22708053 -22 7 C-19.32845283 3.7941434 -14.8226147 2.54374824 -11 1 C-17.43311296 0.90492937 -23.65758005 0.84683274 -30 2 C-25.48082469 -8.00674533 -8.38183391 -2.51685922 0 0 Z " fill="#237C36" transform="translate(242,188)"/>
<path d="M0 0 C0.99 0.33 1.98 0.66 3 1 C3 1.66 3 2.32 3 3 C3.99 3.33 4.98 3.66 6 4 C6.73046875 6.06640625 6.73046875 6.06640625 7.1875 8.5625 C7.42533203 9.80193359 7.42533203 9.80193359 7.66796875 11.06640625 C7.77753906 11.70449219 7.88710938 12.34257812 8 13 C8.66 13 9.32 13 10 13 C9.67 14.32 9.34 15.64 9 17 C7.68 17 6.36 17 5 17 C3.64560332 14.29120665 3.93498549 11.99066732 4 9 C1.525 8.01 1.525 8.01 -1 7 C-1 6.34 -1 5.68 -1 5 C-3.33562474 5.88642814 -3.33562474 5.88642814 -4.125 8.9375 C-5.363999 13.58374625 -5.17279393 18.22896766 -5 23 C-7.64 23 -10.28 23 -13 23 C-12.88501733 20.79112243 -12.75756495 18.58289213 -12.625 16.375 C-12.55539062 15.14523438 -12.48578125 13.91546875 -12.4140625 12.6484375 C-11.93582965 8.43457445 -11.09709998 4.73226313 -8.8125 1.125 C-5.92400831 -0.66785691 -3.31196423 -0.23656887 0 0 Z " fill="#6DB128" transform="translate(368,189)"/>
<path d="M0 0 C2.45050078 1.87011902 3.67598224 3.23624385 4.875 6.0625 C5 8 5 8 3 11 C2.525625 9.865625 2.05125 8.73125 1.5625 7.5625 C0.36377917 4.24259834 0.36377917 4.24259834 -1 3 C-2.51928038 2.92820036 -4.04167482 2.91607993 -5.5625 2.9375 C-6.38878906 2.94652344 -7.21507812 2.95554688 -8.06640625 2.96484375 C-9.02353516 2.98224609 -9.02353516 2.98224609 -10 3 C-10 3.99 -10 4.98 -10 6 C-9.34 6 -8.68 6 -8 6 C-8 6.66 -8 7.32 -8 8 C-6.35 8 -4.7 8 -3 8 C-2.67 9.65 -2.34 11.3 -2 13 C-2.66 13 -3.32 13 -4 13 C-4 13.66 -4 14.32 -4 15 C-5.66611905 15.042721 -7.33382885 15.04063832 -9 15 C-10 14 -10 14 -10.0625 11.4375 C-10.041875 10.633125 -10.02125 9.82875 -10 9 C-10.66 9 -11.32 9 -12 9 C-12 10.65 -12 12.3 -12 14 C-12.99 14.495 -12.99 14.495 -14 15 C-14 16.98 -14 18.96 -14 21 C-14.99 21 -15.98 21 -17 21 C-19.21168225 23.94236782 -19.21168225 23.94236782 -21 27 C-21.66 26.67 -22.32 26.34 -23 26 C-23 25.34 -23 24.68 -23 24 C-22.34 24 -21.68 24 -21 24 C-20.505 19.545 -20.505 19.545 -20 15 C-19.34 15 -18.68 15 -18 15 C-17.67 13.68 -17.34 12.36 -17 11 C-18.32 10.34 -19.64 9.68 -21 9 C-21 8.01 -21 7.02 -21 6 C-21.66 6 -22.32 6 -23 6 C-23.66 4.35 -24.32 2.7 -25 1 C-21.942048 2.73559438 -19.36620011 4.38472619 -17 7 C-16.67 6.34 -16.34 5.68 -16 5 C-15.34 5 -14.68 5 -14 5 C-14 4.01 -14 3.02 -14 2 C-8.87518188 -0.61470312 -5.77346314 -1.633999 0 0 Z M-7 11 C-7 11.66 -7 12.32 -7 13 C-6.01 13 -5.02 13 -4 13 C-4 12.34 -4 11.68 -4 11 C-4.99 11 -5.98 11 -7 11 Z " fill="#3E8E39" transform="translate(290,186)"/>
<path d="M0 0 C0.99 0 1.98 0 3 0 C5.75702189 4.79482068 6.53328373 8.58609132 7 14 C6.01 14 5.02 14 4 14 C3.505 12.515 3.505 12.515 3 11 C1.19605125 12.80394875 1.76294211 15.56677799 1.68359375 18.00390625 C1.62075195 19.82631836 1.62075195 19.82631836 1.55664062 21.68554688 C1.51732422 22.96494141 1.47800781 24.24433594 1.4375 25.5625 C1.37272461 27.48739258 1.37272461 27.48739258 1.30664062 29.45117188 C1.200152 32.63399853 1.09814038 35.81690674 1 39 C0.67 39 0.34 39 0 39 C0 28.11 0 17.22 0 6 C-4.62 6 -9.24 6 -14 6 C-14.03738281 7.47210938 -14.07476562 8.94421875 -14.11328125 10.4609375 C-14.17899383 12.43231491 -14.24543928 14.40366799 -14.3125 16.375 C-14.33505859 17.34050781 -14.35761719 18.30601562 -14.38085938 19.30078125 C-14.65771319 26.80100275 -15.17859238 34.79732108 -20.3125 40.625 C-23.57304056 42.29318354 -25.3870227 42.61497486 -29 42 C-31.375 40 -31.375 40 -33 38 C-32.01 37.505 -32.01 37.505 -31 37 C-30.21625 37.474375 -29.4325 37.94875 -28.625 38.4375 C-25.93627764 40.34098924 -25.93627764 40.34098924 -22 40 C-21.34 38.35 -20.68 36.7 -20 35 C-19.34 35 -18.68 35 -18 35 C-18.01047363 34.17798096 -18.02094727 33.35596191 -18.03173828 32.5090332 C-18.07336759 28.77688669 -18.09934853 25.0447891 -18.125 21.3125 C-18.14175781 20.01892578 -18.15851563 18.72535156 -18.17578125 17.39257812 C-18.18222656 16.14541016 -18.18867188 14.89824219 -18.1953125 13.61328125 C-18.20578613 12.46641846 -18.21625977 11.31955566 -18.22705078 10.13793945 C-18.00058489 7.00808345 -17.33456032 4.81920095 -16 2 C-14.35 2 -12.7 2 -11 2 C-11 2.66 -11 3.32 -11 4 C-10.01 3.67 -9.02 3.34 -8 3 C-6.60560336 2.93334624 -5.20830125 2.91461801 -3.8125 2.9375 C-1.9253125 2.9684375 -1.9253125 2.9684375 0 3 C0 2.01 0 1.02 0 0 Z " fill="#A2CB4D" transform="translate(412,192)"/>
<path d="M0 0 C1.23556641 0.01740234 1.23556641 0.01740234 2.49609375 0.03515625 C3.32238281 0.04417969 4.14867187 0.05320313 5 0.0625 C5.63808594 0.07410156 6.27617187 0.08570313 6.93359375 0.09765625 C6.93359375 0.42765625 6.93359375 0.75765625 6.93359375 1.09765625 C4.29359375 1.42765625 1.65359375 1.75765625 -1.06640625 2.09765625 C-1.39640625 4.40765625 -1.72640625 6.71765625 -2.06640625 9.09765625 C-1.45152344 9.05125 -0.83664062 9.00484375 -0.203125 8.95703125 C6.38597337 8.66278124 6.38597337 8.66278124 9.05859375 10.78515625 C10.15845299 13.69192711 9.93225097 15.17850438 8.93359375 18.09765625 C6.93359375 20.09765625 6.93359375 20.09765625 4.76953125 20.29296875 C1.3515625 20.1953125 1.3515625 20.1953125 -2.06640625 20.09765625 C-2.06640625 24.05765625 -2.06640625 28.01765625 -2.06640625 32.09765625 C-0.41640625 32.42765625 1.23359375 32.75765625 2.93359375 33.09765625 C2.93359375 35.07765625 2.93359375 37.05765625 2.93359375 39.09765625 C-0.36640625 39.09765625 -3.66640625 39.09765625 -7.06640625 39.09765625 C-7.72640625 35.79765625 -8.38640625 32.49765625 -9.06640625 29.09765625 C-7.74640625 28.76765625 -6.42640625 28.43765625 -5.06640625 28.09765625 C-4.73640625 23.80765625 -4.40640625 19.51765625 -4.06640625 15.09765625 C-2.74640625 15.09765625 -1.42640625 15.09765625 -0.06640625 15.09765625 C-0.06640625 15.75765625 -0.06640625 16.41765625 -0.06640625 17.09765625 C1.25359375 16.43765625 2.57359375 15.77765625 3.93359375 15.09765625 C3.60359375 14.10765625 3.27359375 13.11765625 2.93359375 12.09765625 C-0.57831434 10.86795747 -0.57831434 10.86795747 -4.06640625 10.09765625 C-3.92591107 8.61797301 -3.77885799 7.13891109 -3.62890625 5.66015625 C-3.54769531 4.83644531 -3.46648437 4.01273438 -3.3828125 3.1640625 C-2.95988024 0.40194935 -2.8076368 0.13268605 0 0 Z " fill="#6BA740" transform="translate(334.06640625,194.90234375)"/>
<path d="M0 0 C0.33 0 0.66 0 1 0 C1 2.97 1 5.94 1 9 C6.61 9 12.22 9 18 9 C20 13 20 13 19.125 16.25 C18.75375 17.1575 18.3825 18.065 18 19 C-3.05938242 19.47030879 -3.05938242 19.47030879 -10 16 C-10 13.69 -10 11.38 -10 9 C-9.01 9.33 -8.02 9.66 -7 10 C-6.67 11.98 -6.34 13.96 -6 16 C-3.69 16 -1.38 16 1 16 C1.33 15.01 1.66 14.02 2 13 C1.01 13 0.02 13 -1 13 C-1.02696365 11.20841511 -1.04637917 9.41671527 -1.0625 7.625 C-1.07410156 6.62726563 -1.08570313 5.62953125 -1.09765625 4.6015625 C-1 2 -1 2 0 0 Z " fill="#247D39" transform="translate(222,215)"/>
<path d="M0 0 C1.43615537 2.87231073 0.52660024 4.84039855 0 8 C-0.12146865 10.79309261 -0.0953534 13.57993409 -0.0625 16.375 C-0.05798828 17.11105469 -0.05347656 17.84710938 -0.04882812 18.60546875 C-0.03715142 20.40368158 -0.01922011 22.20185197 0 24 C0.62648438 23.98839844 1.25296875 23.97679687 1.8984375 23.96484375 C2.71570313 23.95582031 3.53296875 23.94679687 4.375 23.9375 C5.18710937 23.92589844 5.99921875 23.91429687 6.8359375 23.90234375 C9 24 9 24 11 25 C11.08097324 27.27024968 11.13917704 29.54132075 11.1875 31.8125 C11.22230469 33.07707031 11.25710938 34.34164062 11.29296875 35.64453125 C11 39 11 39 9.67578125 40.92578125 C7.05188653 42.60776504 5.03195448 42.37899431 2 42 C-0.00837943 40.47344081 -0.87094741 39.49453742 -1.51171875 37.0390625 C-1.99168741 30.44749288 -2.12616457 23.85702982 -2.1875 17.25 C-2.20063232 16.35104004 -2.21376465 15.45208008 -2.22729492 14.52587891 C-2.23360996 9.28245315 -1.71500251 4.96198356 0 0 Z " fill="#87BA50" transform="translate(355,194)"/>
<path d="M0 0 C3 1 3 1 4.6875 3.9375 C6.52710182 8.53650456 6.26476769 13.12631335 6 18 C5.34 18 4.68 18 4 18 C3.773125 18.804375 3.54625 19.60875 3.3125 20.4375 C2 23 2 23 -0.25 24.0625 C-4.36785487 23.96891239 -6.06599082 22.86577641 -9 20 C-9.5670148 16.93491057 -9.49256454 14.07385213 -9 11 C-8 10 -8 10 -4.9375 9.9375 C-3.4834375 9.9684375 -3.4834375 9.9684375 -2 10 C-1.34 6.7 -0.68 3.4 0 0 Z " fill="#7DBB2A" transform="translate(388,209)"/>
<path d="M0 0 C1.09699219 0.00966797 2.19398438 0.01933594 3.32421875 0.02929688 C11.36580117 0.14276706 11.36580117 0.14276706 14.875 1.3125 C17.02262184 4.53393276 17.436068 5.5720467 16.875 9.3125 C15.06314594 11.3740961 13.59524993 12.22754923 10.85888672 12.55029297 C8.44082759 12.60799955 6.0425725 12.57366041 3.625 12.5 C2.78453125 12.48646484 1.9440625 12.47292969 1.078125 12.45898438 C-0.98985938 12.42373464 -3.05751271 12.3699302 -5.125 12.3125 C-5.125 11.9825 -5.125 11.6525 -5.125 11.3125 C3.785 10.3225 3.785 10.3225 12.875 9.3125 C13.205 7.3325 13.535 5.3525 13.875 3.3125 C4.635 3.3125 -4.605 3.3125 -14.125 3.3125 C-14.125 11.2325 -14.125 19.1525 -14.125 27.3125 C-14.785 27.3125 -15.445 27.3125 -16.125 27.3125 C-17.38487215 22.81313858 -17.42289744 18.45968138 -17.5 13.8125 C-17.53738281 12.95785156 -17.57476562 12.10320312 -17.61328125 11.22265625 C-17.66842794 7.29498613 -17.6166823 5.02935539 -15.359375 1.73828125 C-10.30815035 -0.48840594 -5.45069347 -0.14513681 0 0 Z " fill="#88B368" transform="translate(338.125,184.6875)"/>
<path d="M0 0 C0.77085937 0.07863281 1.54171875 0.15726563 2.3359375 0.23828125 C4.72260878 0.70665531 6.51097746 1.50499881 8.625 2.6875 C7.965 4.0075 7.305 5.3275 6.625 6.6875 C5.965 6.6875 5.305 6.6875 4.625 6.6875 C4.625 7.3475 4.625 8.0075 4.625 8.6875 C5.285 9.0175 5.945 9.3475 6.625 9.6875 C8.38483132 13.76289885 8.88292333 16.41056069 7.625 20.6875 C6.965 20.6875 6.305 20.6875 5.625 20.6875 C5.625 22.3375 5.625 23.9875 5.625 25.6875 C3.315 26.3475 1.005 27.0075 -1.375 27.6875 C-3.81415537 25.24834463 -3.31107925 19.94745809 -3.375 16.6875 C-2.93309759 13.61221995 -2.24610149 10.66796294 -1.375 7.6875 C-2.035 7.3575 -2.695 7.0275 -3.375 6.6875 C-2.715 5.3675 -2.055 4.0475 -1.375 2.6875 C-3.025 3.0175 -4.675 3.3475 -6.375 3.6875 C-6.375 2.6975 -6.375 1.7075 -6.375 0.6875 C-3.92525696 -0.53737152 -2.6996727 -0.30046191 0 0 Z M-0.375 12.6875 C-0.375 15.9875 -0.375 19.2875 -0.375 22.6875 C3.73918753 22.12954417 3.73918753 22.12954417 5.375 19.125 C5.7875 18.320625 6.2 17.51625 6.625 16.6875 C5.39909808 14.60772703 5.39909808 14.60772703 3.625 12.6875 C2.305 12.6875 0.985 12.6875 -0.375 12.6875 Z " fill="#448A47" transform="translate(255.375,184.3125)"/>
<path d="M0 0 C1.67739258 0.07250977 1.67739258 0.07250977 3.38867188 0.14648438 C5.13954102 0.2305957 5.13954102 0.2305957 6.92578125 0.31640625 C8.69405273 0.3947168 8.69405273 0.3947168 10.49804688 0.47460938 C13.41172219 0.60436819 16.32506203 0.73933757 19.23828125 0.87890625 C19.28082481 2.87845371 19.27908908 4.87932261 19.23828125 6.87890625 C17.68877857 8.42840893 16.13837531 8.09545818 13.984375 8.1953125 C12.70336914 8.2581543 12.70336914 8.2581543 11.39648438 8.32226562 C10.49865234 8.36158203 9.60082031 8.40089844 8.67578125 8.44140625 C7.77408203 8.48458984 6.87238281 8.52777344 5.94335938 8.57226562 C3.7084964 8.67868767 1.47351817 8.78070613 -0.76171875 8.87890625 C-1.09171875 11.51890625 -1.42171875 14.15890625 -1.76171875 16.87890625 C-2.09171875 16.87890625 -2.42171875 16.87890625 -2.76171875 16.87890625 C-2.90609375 15.76515625 -3.05046875 14.65140625 -3.19921875 13.50390625 C-3.5454391 10.05748578 -3.5454391 10.05748578 -4.76171875 7.87890625 C-3.12759432 6.17050344 -1.89265781 4.94437578 0.23828125 3.87890625 C0.23828125 3.21890625 0.23828125 2.55890625 0.23828125 1.87890625 C-4.77706927 2.20850841 -4.77706927 2.20850841 -8.76171875 4.87890625 C-8.76171875 3.55890625 -8.76171875 2.23890625 -8.76171875 0.87890625 C-5.51373132 -0.20375623 -3.40275048 -0.15545561 0 0 Z " fill="#61A62C" transform="translate(332.76171875,187.12109375)"/>
<path d="M0 0 C0.33 1.32 0.66 2.64 1 4 C1.66 4 2.32 4 3 4 C3 9.94 3 15.88 3 22 C1.68 22 0.36 22 -1 22 C-1.268125 22.61875 -1.53625 23.2375 -1.8125 23.875 C-3 26 -3 26 -6 28 C-12.32258065 28.4516129 -12.32258065 28.4516129 -16 26 C-13.36 25.34 -10.72 24.68 -8 24 C-8 22.02 -8 20.04 -8 18 C-7.01 18 -6.02 18 -5 18 C-5 18.66 -5 19.32 -5 20 C-3.68 20 -2.36 20 -1 20 C-1.33 19.01 -1.66 18.02 -2 17 C-2.12246664 15.52223593 -2.22513257 14.04275392 -2.3125 12.5625 C-2.64677932 9.44762449 -2.89637625 8.15351667 -4.6875 5.5 C-7.46529653 3.69818603 -9.7266502 3.29757725 -13 3 C-13 2.67 -13 2.34 -13 2 C-5.61538462 1.63076923 -5.61538462 1.63076923 -2.5 3.5 C-2.005 3.995 -1.51 4.49 -1 5 C-0.67 3.35 -0.34 1.7 0 0 Z " fill="#64A13F" transform="translate(321,208)"/>
<path d="M0 0 C16.9971152 -0.16997115 16.9971152 -0.16997115 24.9375 0.25 C25.85402344 0.29640625 26.77054687 0.3428125 27.71484375 0.390625 C30 1 30 1 31.83203125 2.81640625 C33.57511521 6.07521539 32.79425072 8.49205933 32 12 C30.18884044 13.81115956 27.38721773 13.38199448 24.9375 13.5625 C23.83277344 13.64628906 22.72804688 13.73007813 21.58984375 13.81640625 C20.73519531 13.87699219 19.88054687 13.93757812 19 14 C19 12.68 19 11.36 19 10 C21.31 10 23.62 10 26 10 C25.34 7.36 24.68 4.72 24 2 C16.41 2 8.82 2 1 2 C0.67 1.34 0.34 0.68 0 0 Z " fill="#B8DB68" transform="translate(403,185)"/>
<path d="M0 0 C2 2 2 2 2.01171875 4.34765625 C1.90472656 5.24355469 1.79773438 6.13945312 1.6875 7.0625 C1.58824219 7.96097656 1.48898437 8.85945312 1.38671875 9.78515625 C1 12 1 12 0 13 C-0.19316713 15.02825491 -0.38325788 17.05723921 -0.5234375 19.08984375 C-1 21 -1 21 -4 23 C-6.6875 23.125 -6.6875 23.125 -9 23 C-9.33 21.35 -9.66 19.7 -10 18 C-9.34 18 -8.68 18 -8 18 C-7.81824219 17.35933594 -7.63648438 16.71867187 -7.44921875 16.05859375 C-5.93995637 10.86518318 -4.38030985 5.86411144 -2 1 C-1.34 0.67 -0.68 0.34 0 0 Z " fill="#41952D" transform="translate(297,210)"/>
<path d="M0 0 C0.71115967 0.15847412 1.42231934 0.31694824 2.1550293 0.48022461 C4.97891634 0.99614802 7.65298992 1.20430687 10.51953125 1.31640625 C11.54111328 1.35830078 12.56269531 1.40019531 13.61523438 1.44335938 C15.19788086 1.50233398 15.19788086 1.50233398 16.8125 1.5625 C18.42415039 1.62727539 18.42415039 1.62727539 20.06835938 1.69335938 C22.71212082 1.79910983 25.3559711 1.90120233 28 2 C29.76462683 5.08809695 30 6.23312136 30 10 C27.69 10 25.38 10 23 10 C23.01160156 10.64324219 23.02320313 11.28648437 23.03515625 11.94921875 C23.10901995 19.34614069 22.65578395 26.63414095 22 34 C21.67 34 21.34 34 21 34 C20.97494385 33.16227051 20.9498877 32.32454102 20.92407227 31.46142578 C20.82899643 28.35647744 20.72975975 25.25169819 20.62768555 22.14697266 C20.56301749 20.14105193 20.50316894 18.13497772 20.44335938 16.12890625 C20.40146484 14.87207031 20.35957031 13.61523438 20.31640625 12.3203125 C20.27974854 11.15773926 20.24309082 9.99516602 20.20532227 8.79736328 C20.18178341 6.0464499 20.18178341 6.0464499 19 4 C12.07 3.67 5.14 3.34 -2 3 C-1.34 2.01 -0.68 1.02 0 0 Z " fill="#95C931" transform="translate(399,185)"/>
<path d="M0 0 C2.59426798 -0.27668225 4.91263646 -0.37295242 7.5 -0.3125 C8.18964844 -0.31572266 8.87929687 -0.31894531 9.58984375 -0.32226562 C14.73287408 -0.26712592 14.73287408 -0.26712592 17 2 C11.87080814 4.10428384 7.4389165 4.21755666 2 4 C2.03480469 5.10859375 2.06960937 6.2171875 2.10546875 7.359375 C2.13361349 8.82290148 2.16091292 10.28644439 2.1875 11.75 C2.22520508 12.84441406 2.22520508 12.84441406 2.26367188 13.9609375 C2.30785304 17.20088937 2.20975997 19.59071224 0.71875 22.5 C-1 24 -1 24 -4.6875 24.25 C-5.780625 24.1675 -6.87375 24.085 -8 24 C-8.66 22.35 -9.32 20.7 -10 19 C-7.36 19.33 -4.72 19.66 -2 20 C-2.02320313 18.80761719 -2.04640625 17.61523438 -2.0703125 16.38671875 C-2.08907178 14.82031876 -2.10727181 13.253912 -2.125 11.6875 C-2.14175781 10.90181641 -2.15851563 10.11613281 -2.17578125 9.30664062 C-2.18222656 8.54931641 -2.18867188 7.79199219 -2.1953125 7.01171875 C-2.20578613 6.31522217 -2.21625977 5.61872559 -2.22705078 4.90112305 C-2 3 -2 3 0 0 Z " fill="#589270" transform="translate(190,212)"/>
<path d="M0 0 C2 3 2 3 1.625 5.1875 C1.41875 5.785625 1.2125 6.38375 1 7 C0.34 7 -0.32 7 -1 7 C-1 7.66 -1 8.32 -1 9 C-2.98 9.33 -4.96 9.66 -7 10 C-7.77112541 14.72314313 -8.09764874 19.21521178 -8 24 C-9.32 23.67 -10.64 23.34 -12 23 C-12.66 19.7 -13.32 16.4 -14 13 C-13.34 13 -12.68 13 -12 13 C-10.73848063 10.65717832 -9.8454385 8.49509909 -9.0625 5.9375 C-7.273259 0.99077488 -5.41531592 -0.83312553 0 0 Z " fill="#1D7736" transform="translate(230,205)"/>
<path d="M0 0 C0.66 0 1.32 0 2 0 C2 0.66 2 1.32 2 2 C4.475 2.99 4.475 2.99 7 4 C7 5.98 7 7.96 7 10 C6.67 10 6.34 10 6 10 C6 8.35 6 6.7 6 5 C4.35 5 2.7 5 1 5 C0.67 11.6 0.34 18.2 0 25 C-2.97 25 -5.94 25 -9 25 C-9.33 22.69 -9.66 20.38 -10 18 C-7.36 18 -4.72 18 -2 18 C-2.10699219 17.3709375 -2.21398437 16.741875 -2.32421875 16.09375 C-3.21552414 9.73002118 -2.69970827 5.83136986 0 0 Z " fill="#7EAF39" transform="translate(365,194)"/>
<path d="M0 0 C0.66 0.33 1.32 0.66 2 1 C2 1.99 2 2.98 2 4 C-5.26 4 -12.52 4 -20 4 C-19.67 6.97 -19.34 9.94 -19 13 C-17.55625 12.938125 -16.1125 12.87625 -14.625 12.8125 C-12.1640625 12.70703125 -12.1640625 12.70703125 -10 13 C-8 16 -8 16 -8.3125 19.625 C-9 23 -9 23 -10 24 C-11.51928038 24.07179964 -13.04167482 24.08392007 -14.5625 24.0625 C-15.38878906 24.05347656 -16.21507812 24.04445312 -17.06640625 24.03515625 C-18.02353516 24.01775391 -18.02353516 24.01775391 -19 24 C-19 23.67 -19 23.34 -19 23 C-17.02 23 -15.04 23 -13 23 C-13 22.34 -13 21.68 -13 21 C-12.34 20.67 -11.68 20.34 -11 20 C-11.33 18.02 -11.66 16.04 -12 14 C-13.65 14 -15.3 14 -17 14 C-17.33 14.99 -17.66 15.98 -18 17 C-18.99 16.67 -19.98 16.34 -21 16 C-22.33959145 11.98122566 -22.6025894 8.20247414 -22 4 C-20 1.9375 -20 1.9375 -18 1 C-17.67 1.33 -17.34 1.66 -17 2 C-14.30345146 2.07319621 -11.63308542 2.09242537 -8.9375 2.0625 C-7.79958008 2.05573242 -7.79958008 2.05573242 -6.63867188 2.04882812 C-4.75908129 2.0370068 -2.87953101 2.01907078 -1 2 C-0.67 1.34 -0.34 0.68 0 0 Z " fill="#2D7743" transform="translate(242,191)"/>
<path d="M0 0 C0.66 0.33 1.32 0.66 2 1 C1.69163768 3.12560437 1.37818386 5.25047065 1.0625 7.375 C0.88847656 8.55835938 0.71445312 9.74171875 0.53515625 10.9609375 C0 14 0 14 -1 16 C-1.66 16 -2.32 16 -3 16 C-2.67 17.32 -2.34 18.64 -2 20 C1.465 19.505 1.465 19.505 5 19 C5.103125 17.7625 5.20625 16.525 5.3125 15.25 C5.73801682 11.7207134 6.48112592 9.62839034 9 7 C9.20352854 12.90232757 9.14915811 17.77626284 5.75 22.875 C3.08215487 24.5900433 1.09226613 24.38653327 -2 24 C-3.69140625 22.72265625 -3.69140625 22.72265625 -5 21 C-4.88151155 13.53522784 -2.53467526 6.96740968 0 0 Z " fill="#77A363" transform="translate(290,212)"/>
<path d="M0 0 C0.66 0 1.32 0 2 0 C2.66 1.98 3.32 3.96 4 6 C8.14093698 6.20970559 8.14093698 6.20970559 12 5 C12.33 6.65 12.66 8.3 13 10 C11.125 12.0625 11.125 12.0625 8 14 C4.59546453 14.0571754 1.34668858 13.59785505 -2 13 C-2.33 10.69 -2.66 8.38 -3 6 C-2.01 5.67 -1.02 5.34 0 5 C0 3.35 0 1.7 0 0 Z " fill="#3E9031" transform="translate(278,195)"/>
<path d="M0 0 C0.66 0 1.32 0 2 0 C3.45147903 2.90295805 3.37239025 4.77261779 3 8 C1.700625 9.3921875 1.700625 9.3921875 0.375 10.8125 C-2.26867251 13.65654086 -2.26867251 13.65654086 -1.88671875 16.37890625 C-1.36671457 18.63933257 -0.76381033 20.81073472 0 23 C1.65 23 3.3 23 5 23 C5.33 23.99 5.66 24.98 6 26 C-0.43925234 27.3364486 -0.43925234 27.3364486 -2.875 25.875 C-5.17527178 22.0412137 -5.15765734 17.68743369 -5.1875 13.3125 C-5.20167969 12.35988281 -5.21585938 11.40726563 -5.23046875 10.42578125 C-5 8 -5 8 -3 6 C-2.01 6 -1.02 6 0 6 C0 4.02 0 2.04 0 0 Z " fill="#0B7731" transform="translate(219,205)"/>
<path d="M0 0 C0.02686553 1.97909398 0.04633375 3.95828971 0.0625 5.9375 C0.07410156 7.03964844 0.08570313 8.14179688 0.09765625 9.27734375 C0 12 0 12 -1 13 C-3.33944736 12.71269945 -5.6739143 12.38063221 -8 12 C-8 8.37 -8 4.74 -8 1 C-3 -1 -3 -1 0 0 Z " fill="#7EB64A" transform="translate(363,221)"/>
<path d="M0 0 C0.33 0 0.66 0 1 0 C1.08829061 3.79151583 1.14081946 7.58276165 1.1875 11.375 C1.21263672 12.43589844 1.23777344 13.49679688 1.26367188 14.58984375 C1.33579934 22.42769533 1.07938976 30.50447648 -4.3125 36.625 C-7.57304056 38.29318354 -9.3870227 38.61497486 -13 38 C-15.375 36 -15.375 36 -17 34 C-16.01 33.505 -16.01 33.505 -15 33 C-14.21625 33.474375 -13.4325 33.94875 -12.625 34.4375 C-9.93627764 36.34098924 -9.93627764 36.34098924 -6 36 C-5.34 34.35 -4.68 32.7 -4 31 C-3.34 31 -2.68 31 -2 31 C-2.01047363 30.16750732 -2.02094727 29.33501465 -2.03173828 28.47729492 C-2.06584442 25.38550844 -2.09091076 22.29381792 -2.10986328 19.2019043 C-2.12485495 17.20680382 -2.15026731 15.21179054 -2.17578125 13.21679688 C-2.18222656 11.96318359 -2.18867188 10.70957031 -2.1953125 9.41796875 C-2.20578613 8.26063232 -2.21625977 7.1032959 -2.22705078 5.91088867 C-2 3 -2 3 0 0 Z " fill="#A4BD6B" transform="translate(396,196)"/>
<path d="M0 0 C0 0.99 0 1.98 0 3 C1.32 3.66 2.64 4.32 4 5 C3.74438677 7.3431213 3.40729228 9.67843403 3 12 C0.49860398 13.25069801 -1.27392691 13.13302467 -4.0625 13.125 C-5.41021484 13.12886719 -5.41021484 13.12886719 -6.78515625 13.1328125 C-9 13 -9 13 -10 12 C-10.07226502 10.14712498 -10.0838122 8.29166122 -10.0625 6.4375 C-10.05347656 5.42558594 -10.04445312 4.41367188 -10.03515625 3.37109375 C-10.02355469 2.58863281 -10.01195312 1.80617187 -10 1 C-3.375 -1.125 -3.375 -1.125 0 0 Z M-6 2 C-7.41577477 3.18424326 -7.41577477 3.18424326 -7.0625 6.5625 C-7.041875 7.696875 -7.02125 8.83125 -7 10 C-4.39417629 10.93065133 -3.35801776 11.14917407 -0.75 10.0625 C-0.1725 9.711875 0.405 9.36125 1 9 C1.25030977 6.58380177 1.25030977 6.58380177 1 4 C-1.95377498 1.63019987 -1.95377498 1.63019987 -6 2 Z " fill="#629576" transform="translate(199,195)"/>
<path d="M0 0 C1.65 0 3.3 0 5 0 C5.66 2.64 6.32 5.28 7 8 C8.32 8.33 9.64 8.66 11 9 C11.13277344 9.69867188 11.26554687 10.39734375 11.40234375 11.1171875 C11.57894531 12.02726563 11.75554687 12.93734375 11.9375 13.875 C12.11152344 14.77992188 12.28554688 15.68484375 12.46484375 16.6171875 C12.89963701 18.99956317 12.89963701 18.99956317 14 21 C14.13415472 23.6723621 14.04318541 26.32250488 14 29 C13.34 29.33 12.68 29.66 12 30 C9.39498137 23.38802523 6.88283253 16.85888995 5 10 C3.29265616 4.55365156 3.29265616 4.55365156 0 0 Z " fill="#91BC52" transform="translate(366,199)"/>
<path d="M0 0 C1.32 0 2.64 0 4 0 C3.690625 1.0725 3.38125 2.145 3.0625 3.25 C1.16696968 10.8592003 0.62911804 18.28878899 2 26 C1.80461575 29.02094103 1.43267112 32.00458456 1 35 C0.34 35 -0.32 35 -1 35 C-1.16891611 30.81258759 -1.33473105 26.62505782 -1.5 22.4375 C-1.54769531 21.25607422 -1.59539062 20.07464844 -1.64453125 18.85742188 C-1.77337566 15.57188933 -1.88902015 12.28617745 -2 9 C-2.03351563 8.23059082 -2.06703125 7.46118164 -2.1015625 6.66845703 C-2.15625 4.78515625 -2.15625 4.78515625 -2 2 C-1.34 1.34 -0.68 0.68 0 0 Z " fill="#1B6637" transform="translate(213,189)"/>
<path d="M0 0 C2.875 0.875 2.875 0.875 4.875 2.875 C6.09962231 9.61042272 3.98818426 14.99608508 0.875 20.875 C0.545 20.875 0.215 20.875 -0.125 20.875 C-0.455 17.245 -0.785 13.615 -1.125 9.875 C-0.135 9.875 0.855 9.875 1.875 9.875 C1.545 7.895 1.215 5.915 0.875 3.875 C-0.775 3.875 -2.425 3.875 -4.125 3.875 C-4.455 4.535 -4.785 5.195 -5.125 5.875 C-5.785 5.875 -6.445 5.875 -7.125 5.875 C-7.455 6.535 -7.785 7.195 -8.125 7.875 C-7.74179443 5.19256099 -7.05347619 3.77698589 -5.4375 1.5625 C-3.125 -0.125 -3.125 -0.125 0 0 Z " fill="#76A860" transform="translate(304.125,185.125)"/>
<path d="M0 0 C2.4375 1 2.4375 1 4 2 C1.53364111 5.05828502 0.30056062 5.93781504 -3.625 6.75 C-5.41370304 6.88249652 -7.2063964 7 -9 7 C-9.33 7.66 -9.66 8.32 -10 9 C-11.32 9 -12.64 9 -14 9 C-11.75219559 1.64354919 -7.56628439 -0.82541284 0 0 Z " fill="#24784A" transform="translate(194,185)"/>
<path d="M0 0 C2.31 0.66 4.62 1.32 7 2 C7.33 3.65 7.66 5.3 8 7 C7.5875 6.525625 7.175 6.05125 6.75 5.5625 C4.86673565 3.63715751 4.86673565 3.63715751 1 3 C1 6.3 1 9.6 1 13 C4.62793998 11.13433512 4.62793998 11.13433512 7 8 C7.66 8 8.32 8 9 8 C9 8.99 9 9.98 9 11 C8.34 11 7.68 11 7 11 C7 12.65 7 14.3 7 16 C4.69 16.66 2.38 17.32 0 18 C-2.42645911 15.57354089 -1.932972 10.25564557 -2 7 C-1.56666058 4.48840008 -0.88824476 2.40348583 0 0 Z " fill="#3F8941" transform="translate(254,194)"/>
<path d="M0 0 C0.5775 0.37125 1.155 0.7425 1.75 1.125 C4 2.29166667 4 2.29166667 6.25 1.125 C6.8275 0.75375 7.405 0.3825 8 0 C7.814375 1.03125 7.62875 2.0625 7.4375 3.125 C7.02692918 6.76148442 7.221691 9.45437009 8 13 C9.32 13 10.64 13 12 13 C11.773125 12.071875 11.54625 11.14375 11.3125 10.1875 C11 7 11 7 12.4375 5.125 C12.953125 4.75375 13.46875 4.3825 14 4 C16.1642235 7.24633524 16.37569856 8.24301443 16 12 C15.01 13.485 15.01 13.485 14 15 C10.5 15.375 10.5 15.375 7 15 C5 12 5 12 4.625 8.4375 C4.40277185 4.92071493 4.40277185 4.92071493 1.9375 3.5625 C1.298125 3.376875 0.65875 3.19125 0 3 C0 2.01 0 1.02 0 0 Z " fill="#86C141" transform="translate(372,204)"/>
<path d="M0 0 C2.60423592 -0.02697137 5.20819244 -0.04682489 7.8125 -0.0625 C8.55048828 -0.07087891 9.28847656 -0.07925781 10.04882812 -0.08789062 C13.29922068 -0.10259828 15.89404895 -0.03531702 19 1 C21.14762184 4.22143276 21.561068 5.2595467 21 9 C19.18814594 11.0615961 17.72024993 11.91504923 14.98388672 12.23779297 C12.56582759 12.29549955 10.1675725 12.26116041 7.75 12.1875 C6.90953125 12.17396484 6.0690625 12.16042969 5.203125 12.14648438 C3.13514062 12.11123464 1.06748729 12.0574302 -1 12 C-1 11.67 -1 11.34 -1 11 C7.91 10.01 7.91 10.01 17 9 C17.33 6.69 17.66 4.38 18 2 C17.11957031 2.01160156 16.23914063 2.02320313 15.33203125 2.03515625 C13.58986328 2.04869141 13.58986328 2.04869141 11.8125 2.0625 C10.66394531 2.07410156 9.51539063 2.08570313 8.33203125 2.09765625 C5.40699414 2.01192832 2.83683709 1.67849023 0 1 C0 0.67 0 0.34 0 0 Z " fill="#9AC17F" transform="translate(334,185)"/>
<path d="M0 0 C1.23556641 0.01740234 1.23556641 0.01740234 2.49609375 0.03515625 C3.32238281 0.04417969 4.14867187 0.05320313 5 0.0625 C5.63808594 0.07410156 6.27617187 0.08570313 6.93359375 0.09765625 C6.93359375 0.42765625 6.93359375 0.75765625 6.93359375 1.09765625 C4.29359375 1.42765625 1.65359375 1.75765625 -1.06640625 2.09765625 C-1.39640625 4.40765625 -1.72640625 6.71765625 -2.06640625 9.09765625 C-1.45152344 9.05125 -0.83664062 9.00484375 -0.203125 8.95703125 C6.38597337 8.66278124 6.38597337 8.66278124 9.05859375 10.78515625 C10.15845299 13.69192711 9.93225097 15.17850438 8.93359375 18.09765625 C6.93359375 20.09765625 6.93359375 20.09765625 4.76953125 20.29296875 C3.95742188 20.26976562 3.1453125 20.2465625 2.30859375 20.22265625 C1.49132812 20.20460937 0.6740625 20.1865625 -0.16796875 20.16796875 C-0.79445313 20.14476562 -1.4209375 20.1215625 -2.06640625 20.09765625 C-2.06640625 19.76765625 -2.06640625 19.43765625 -2.06640625 19.09765625 C0.90359375 18.76765625 3.87359375 18.43765625 6.93359375 18.09765625 C6.15052421 14.35074178 6.15052421 14.35074178 4.93359375 12.09765625 C3.06866973 11.70770523 3.06866973 11.70770523 0.93359375 11.59765625 C-1.25390625 11.44140625 -1.25390625 11.44140625 -3.06640625 11.09765625 C-4.72562025 7.77922825 -3.63900153 4.70500649 -3.06640625 1.09765625 C-2.06640625 0.09765625 -2.06640625 0.09765625 0 0 Z " fill="#78A652" transform="translate(334.06640625,194.90234375)"/>
<path d="M0 0 C0.33 0 0.66 0 1 0 C1 2.97 1 5.94 1 9 C2.80597656 8.94779297 2.80597656 8.94779297 4.6484375 8.89453125 C6.22394442 8.8663972 7.79946638 8.83909663 9.375 8.8125 C10.1690625 8.78736328 10.963125 8.76222656 11.78125 8.73632812 C13.85586148 8.70995595 15.93100865 8.84513538 18 9 C18.99 10.485 18.99 10.485 20 12 C13.07 12 6.14 12 -1 12 C-1 2 -1 2 0 0 Z " fill="#689A73" transform="translate(222,215)"/>
<path d="M0 0 C3.27420611 3.04033424 5.90212569 6.03734852 8 10 C7.75 13.875 7.75 13.875 7 17 C5.02 17.66 3.04 18.32 1 19 C0.01 18.01 -0.98 17.02 -2 16 C0.31 15.34 2.62 14.68 5 14 C5.33 12.68 5.66 11.36 6 10 C4.68 9.67 3.36 9.34 2 9 C2 8.01 2 7.02 2 6 C0.68 5.67 -0.64 5.34 -2 5 C-1.34 3.35 -0.68 1.7 0 0 Z " fill="#54904E" transform="translate(266,218)"/>
<path d="M0 0 C4.875 1.875 4.875 1.875 6 3 C6.04063832 4.66617115 6.042721 6.33388095 6 8 C5.01 7.34 4.02 6.68 3 6 C2.34 8.31 1.68 10.62 1 13 C-1.64 13 -4.28 13 -7 13 C-7 12.01 -7 11.02 -7 10 C-5.35 10.33 -3.7 10.66 -2 11 C-1.93941406 10.28972656 -1.87882813 9.57945312 -1.81640625 8.84765625 C-1.73261719 7.92855469 -1.64882812 7.00945312 -1.5625 6.0625 C-1.48128906 5.14597656 -1.40007812 4.22945312 -1.31640625 3.28515625 C-1 1 -1 1 0 0 Z " fill="#38883C" transform="translate(254,221)"/>
<path d="M0 0 C0 1.32 0 2.64 0 4 C-0.53625 3.71125 -1.0725 3.4225 -1.625 3.125 C-4.35234445 1.8331 -7.13302341 0.93471292 -10 0 C-10.06058594 1.04800781 -10.12117188 2.09601563 -10.18359375 3.17578125 C-10.26801738 4.55470048 -10.35266447 5.93360605 -10.4375 7.3125 C-10.49647461 8.34793945 -10.49647461 8.34793945 -10.55664062 9.40429688 C-10.74927415 12.47161535 -11.02322717 15.06968152 -12 18 C-12.66 17.67 -13.32 17.34 -14 17 C-13.91304042 14.39421134 -13.80618592 11.7918721 -13.6875 9.1875 C-13.66494141 8.44951172 -13.64238281 7.71152344 -13.61914062 6.95117188 C-13.34782457 1.50018577 -13.34782457 1.50018577 -11.64453125 -0.94921875 C-7.03876329 -3.89209662 -4.62508313 -2.18164299 0 0 Z " fill="#B9D46B" transform="translate(397,188)"/>
<path d="M0 0 C1.32 0 2.64 0 4 0 C4.46317627 0.4844458 4.92635254 0.9688916 5.40356445 1.46801758 C7.6918297 3.66389836 9.41613916 3.42899839 12.54296875 3.51171875 C14.15268555 3.56489258 14.15268555 3.56489258 15.79492188 3.61914062 C16.91447266 3.64169922 18.03402344 3.66425781 19.1875 3.6875 C20.88422852 3.73874023 20.88422852 3.73874023 22.61523438 3.79101562 C25.4100574 3.87356314 28.20456398 3.94269182 31 4 C30.67 4.66 30.34 5.32 30 6 C25.89596637 6.08694042 21.79216871 6.14037149 17.6875 6.1875 C15.93663086 6.22520508 15.93663086 6.22520508 14.15039062 6.26367188 C13.03212891 6.27333984 11.91386719 6.28300781 10.76171875 6.29296875 C9.73006592 6.3086792 8.69841309 6.32438965 7.63549805 6.34057617 C5 6 5 6 3.13989258 4.60668945 C2 3 2 3 2 1 C1.34 0.67 0.68 0.34 0 0 Z " fill="#9FC183" transform="translate(320,230)"/>
<path d="M0 0 C0.66 0.66 1.32 1.32 2 2 C1.9765625 4.1640625 1.9765625 4.1640625 1.625 6.625 C1.45871094 7.85089844 1.45871094 7.85089844 1.2890625 9.1015625 C1.14597656 10.04128906 1.14597656 10.04128906 1 11 C0.608125 10.360625 0.21625 9.72125 -0.1875 9.0625 C-2.38472296 6.56221181 -3.75791433 6.35049575 -7 6 C-7 5.34 -7 4.68 -7 4 C-7.66 4 -8.32 4 -9 4 C-9 3.01 -9 2.02 -9 1 C-5.75778445 -0.08073852 -3.39597063 -0.21676408 0 0 Z " fill="#3D922D" transform="translate(289,188)"/>
<path d="M0 0 C1.9375 0.3125 1.9375 0.3125 4 1 C5.2062252 4.61867559 5.10816918 7.92506251 5.0625 11.6875 C5.05798828 12.38939453 5.05347656 13.09128906 5.04882812 13.81445312 C5.03706927 15.54300538 5.01913454 17.27151365 5 19 C1.66441155 12.3288231 -0.39489567 7.50301765 0 0 Z " fill="#8FC548" transform="translate(390,202)"/>
<path d="M0 0 C-0.375 2.4375 -0.375 2.4375 -1 5 C-3.86120256 6.43060128 -5.84010585 6.38692581 -9 6 C-10.875 3.5 -10.875 3.5 -12 1 C-7.53763531 -0.80619523 -4.68965706 -1.11658501 0 0 Z " fill="#398A35" transform="translate(272,228)"/>
<path d="M0 0 C0.66 0.33 1.32 0.66 2 1 C2 1.66 2 2.32 2 3 C2.66 3.33 3.32 3.66 4 4 C3.75 6.875 3.75 6.875 3 10 C0.9375 11.375 0.9375 11.375 -1 12 C-0.67 11.01 -0.34 10.02 0 9 C-0.99 9 -1.98 9 -3 9 C-3.28875 8.360625 -3.5775 7.72125 -3.875 7.0625 C-4.82823451 4.84793921 -4.82823451 4.84793921 -7 4 C-6.67 3.34 -6.34 2.68 -6 2 C-4.0625 1.4375 -4.0625 1.4375 -2 1 C-1.34 0.67 -0.68 0.34 0 0 Z " fill="#4A9C2E" transform="translate(312,212)"/>
<path d="M0 0 C0.9075 0.33 1.815 0.66 2.75 1 C2.75 1.33 2.75 1.66 2.75 2 C1.67621094 2.06058594 0.60242188 2.12117187 -0.50390625 2.18359375 C-1.94011315 2.26807651 -3.37631058 2.35272054 -4.8125 2.4375 C-5.51697266 2.47681641 -6.22144531 2.51613281 -6.94726562 2.55664062 C-11.4298541 2.82518279 -15.81293497 3.30616197 -20.25 4 C-16.84996229 -3.52865494 -7.09193869 -2.05331284 0 0 Z " fill="#407C4E" transform="translate(232.25,186)"/>
<path d="M0 0 C-3 2 -3 2 -5.5625 3.375 C-12.03540766 10.34582364 -10.2368591 23.10462503 -10 32 C-10.66 31.67 -11.32 31.34 -12 31 C-12.52230403 7.87353833 -12.52230403 7.87353833 -8.25 1.3125 C-5.35499433 -0.37625331 -3.2950933 -0.29955394 0 0 Z " fill="#84B04F" transform="translate(366,187)"/>
<path d="M0 0 C2.79173055 -0.02690104 5.58320348 -0.04679053 8.375 -0.0625 C9.56609375 -0.07506836 9.56609375 -0.07506836 10.78125 -0.08789062 C16.7734375 -0.11328125 16.7734375 -0.11328125 19 1 C19 1.66 19 2.32 19 3 C12.73 3 6.46 3 0 3 C0 2.01 0 1.02 0 0 Z " fill="#9FBF80" transform="translate(332,224)"/>
<path d="M0 0 C1.33202451 4.47397545 1.06168283 8.47955357 0 13 C-1.6875 15.5625 -1.6875 15.5625 -4 17 C-7.25 17.25 -7.25 17.25 -10 17 C-10.33 16.01 -10.66 15.02 -11 14 C-8.36 13.34 -5.72 12.68 -3 12 C-2.87625 10.7625 -2.7525 9.525 -2.625 8.25 C-2.24253695 5.1237803 -1.69450477 2.71120763 0 0 Z " fill="#699752" transform="translate(298,219)"/>
<path d="M0 0 C0.33 1.32 0.66 2.64 1 4 C0.34 4 -0.32 4 -1 4 C-0.34 7.96 0.32 11.92 1 16 C0.01 16 -0.98 16 -2 16 C-5.00559652 10.99067246 -5.29341888 7.67276511 -5 2 C-3.68 2.33 -2.36 2.66 -1 3 C-0.67 2.01 -0.34 1.02 0 0 Z " fill="#5D9B43" transform="translate(303,215)"/>
<path d="M0 0 C3.057952 1.73559438 5.63379989 3.38472619 8 6 C8.33 5.34 8.66 4.68 9 4 C9.66 4 10.32 4 11 4 C11 3.01 11 2.02 11 1 C11.66 1 12.32 1 13 1 C12.67 2.98 12.34 4.96 12 7 C11.01 7.33 10.02 7.66 9 8 C9 8.66 9 9.32 9 10 C7.68 9.67 6.36 9.34 5 9 C4.67 7.68 4.34 6.36 4 5 C3.34 5 2.68 5 2 5 C1.34 3.35 0.68 1.7 0 0 Z " fill="#61965A" transform="translate(265,187)"/>
<path d="M0 0 C0.33 0 0.66 0 1 0 C1.2210949 2.95789127 1.42740245 5.91552764 1.625 8.875 C1.68945312 9.71675781 1.75390625 10.55851563 1.8203125 11.42578125 C1.871875 12.23144531 1.9234375 13.03710938 1.9765625 13.8671875 C2.02893066 14.61081543 2.08129883 15.35444336 2.13525391 16.12060547 C2 18 2 18 0 20 C-3.625 20.125 -3.625 20.125 -7 20 C-7.66 18.35 -8.32 16.7 -9 15 C-6.36 15.33 -3.72 15.66 -1 16 C-0.67 10.72 -0.34 5.44 0 0 Z " fill="#3A7655" transform="translate(189,216)"/>
<path d="M0 0 C0.99 0 1.98 0 3 0 C3.33 1.65 3.66 3.3 4 5 C3.34 5 2.68 5 2 5 C2.01160156 5.64324219 2.02320313 6.28648437 2.03515625 6.94921875 C2.10901995 14.34614069 1.65578395 21.63414095 1 29 C0.67 29 0.34 29 0 29 C0 19.43 0 9.86 0 0 Z " fill="#9ACA3A" transform="translate(420,190)"/>
<path d="M0 0 C1.43687108 2.87374216 0.53229828 4.84266911 0 8 C-0.09155858 10.71982828 -0.14012886 13.40684902 -0.125 16.125 C-0.12886719 16.82753906 -0.13273437 17.53007812 -0.13671875 18.25390625 C-0.13160838 20.95728962 -0.12529187 23.50066159 0.53515625 26.1328125 C1.18948634 28.76113002 0.84980381 31.0684978 0.5625 33.75 C0.46066406 34.73484375 0.35882813 35.7196875 0.25390625 36.734375 C0.17011719 37.48203125 0.08632813 38.2296875 0 39 C-0.33 39 -0.66 39 -1 39 C-1.94886553 31.76490035 -2.13680457 24.53683445 -2.1875 17.25 C-2.20039063 16.35128174 -2.21328125 15.45256348 -2.2265625 14.52661133 C-2.23433325 9.28281071 -1.7150836 4.96221816 0 0 Z " fill="#B5D290" transform="translate(355,194)"/>
<path d="M0 0 C5.60573477 1.46236559 5.60573477 1.46236559 7.375 3.875 C8 6 8 6 8 10 C6.68 9.67 5.36 9.34 4 9 C4 8.34 4 7.68 4 7 C3.34 7 2.68 7 2 7 C0.61767557 5.37373596 -0.71937515 3.7074998 -2 2 C-1.34 1.34 -0.68 0.68 0 0 Z " fill="#027034" transform="translate(198,189)"/>
<path d="M0 0 C2.45050078 1.87011902 3.67598224 3.23624385 4.875 6.0625 C5 8 5 8 3 11 C2.525625 9.865625 2.05125 8.73125 1.5625 7.5625 C0.36377917 4.24259834 0.36377917 4.24259834 -1 3 C-2.68183948 2.76712992 -4.3712416 2.58735834 -6.0625 2.4375 C-7.44115234 2.31181641 -7.44115234 2.31181641 -8.84765625 2.18359375 C-9.91306641 2.09271484 -9.91306641 2.09271484 -11 2 C-8.76927223 -2.46145553 -4.09036473 -0.9328902 0 0 Z " fill="#6D9B5E" transform="translate(290,186)"/>
<path d="M0 0 C1.32 0.33 2.64 0.66 4 1 C3.67 1.33 3.34 1.66 3 2 C2.84344973 3.48638992 2.74933057 4.97949127 2.68359375 6.47265625 C2.62075195 7.82133789 2.62075195 7.82133789 2.55664062 9.19726562 C2.51732422 10.14279297 2.47800781 11.08832031 2.4375 12.0625 C2.39431641 13.01189453 2.35113281 13.96128906 2.30664062 14.93945312 C2.20020724 17.29281353 2.09818992 19.64628354 2 22 C1.34 22 0.68 22 0 22 C0 14.74 0 7.48 0 0 Z " fill="#0A5E35" transform="translate(180,195)"/>
<path d="M0 0 C2.64 0 5.28 0 8 0 C8 1.98 8 3.96 8 6 C5.69 6.33 3.38 6.66 1 7 C0.67 4.69 0.34 2.38 0 0 Z " fill="#77B63D" transform="translate(355,212)"/>
<path d="M0 0 C0.33 0 0.66 0 1 0 C1.33 5.28 1.66 10.56 2 16 C2.66 16 3.32 16 4 16 C4 17.32 4 18.64 4 20 C3.01 20 2.02 20 1 20 C1.66 21.98 2.32 23.96 3 26 C2.34 26 1.68 26 1 26 C-0.30475618 23.39048764 -0.11301572 21.47298715 -0.09765625 18.5546875 C-0.09443359 17.47832031 -0.09121094 16.40195313 -0.08789062 15.29296875 C-0.07951172 14.16503906 -0.07113281 13.03710938 -0.0625 11.875 C-0.05798828 10.73933594 -0.05347656 9.60367188 -0.04882812 8.43359375 C-0.03701615 5.62234362 -0.02054507 2.8111977 0 0 Z " fill="#8FC431" transform="translate(413,208)"/>
<path d="M0 0 C0.66 0.33 1.32 0.66 2 1 C2 5.62 2 10.24 2 15 C1.01 15.33 0.02 15.66 -1 16 C-1.02685095 13.52076199 -1.04676547 11.0418116 -1.0625 8.5625 C-1.07506836 7.50192383 -1.07506836 7.50192383 -1.08789062 6.41992188 C-1.09653588 4.61306441 -1.05220011 2.80612397 -1 1 C-0.67 0.67 -0.34 0.34 0 0 Z " fill="#87C820" transform="translate(416,208)"/>
<path d="M0 0 C4 1 4 1 6 2 C6 4.31 6 6.62 6 9 C2.125 11 2.125 11 1 11 C0.67 7.37 0.34 3.74 0 0 Z " fill="#7CBB24" transform="translate(387,189)"/>
<path d="M0 0 C3.3 0 6.6 0 10 0 C9.34 0.66 8.68 1.32 8 2 C8.66 2.33 9.32 2.66 10 3 C10 3.66 10 4.32 10 5 C2.25 6.125 2.25 6.125 0 5 C0 3.35 0 1.7 0 0 Z " fill="#84C121" transform="translate(399,189)"/>
<path d="M0 0 C1.45742463 -0.08096803 2.91612807 -0.13917774 4.375 -0.1875 C5.18710938 -0.22230469 5.99921875 -0.25710937 6.8359375 -0.29296875 C7.55007812 -0.19628906 8.26421875 -0.09960938 9 0 C11 3 11 3 10.6875 6.625 C10 10 10 10 9 11 C7.48071962 11.07179964 5.95832518 11.08392007 4.4375 11.0625 C3.61121094 11.05347656 2.78492188 11.04445312 1.93359375 11.03515625 C1.29550781 11.02355469 0.65742188 11.01195312 0 11 C0 10.67 0 10.34 0 10 C1.98 10 3.96 10 6 10 C6 9.34 6 8.68 6 8 C6.66 7.67 7.32 7.34 8 7 C7.67 5.02 7.34 3.04 7 1 C4.69 1 2.38 1 0 1 C0 0.67 0 0.34 0 0 Z " fill="#65936E" transform="translate(223,204)"/>
<path d="M0 0 C1.67542976 0.28604898 3.34385343 0.61781233 5 1 C2.84267779 3.22473853 1.18451694 4.91242871 -2.0078125 5.1484375 C-6.07954683 4.74276655 -8.33909203 4.04930137 -11 1 C-10.28972656 1.01160156 -9.57945312 1.02320313 -8.84765625 1.03515625 C-7.92855469 1.04417969 -7.00945312 1.05320313 -6.0625 1.0625 C-4.68771484 1.07990234 -4.68771484 1.07990234 -3.28515625 1.09765625 C-1.03406673 1.25949049 -1.03406673 1.25949049 0 0 Z " fill="#75A467" transform="translate(287,207)"/>
<path d="M0 0 C2 3 2 3 2 5 C-0.88211302 5.96070434 -2.69850044 6.10581883 -5.6875 6.0625 C-6.89986328 6.04896484 -6.89986328 6.04896484 -8.13671875 6.03515625 C-9.05904297 6.01775391 -9.05904297 6.01775391 -10 6 C-10 5.01 -10 4.02 -10 3 C-9.04287109 2.80083984 -9.04287109 2.80083984 -8.06640625 2.59765625 C-7.24011719 2.42105469 -6.41382813 2.24445313 -5.5625 2.0625 C-4.73878906 1.88847656 -3.91507813 1.71445313 -3.06640625 1.53515625 C-1.02338796 1.19247006 -1.02338796 1.19247006 0 0 Z " fill="#016F35" transform="translate(202,207)"/>
<path d="M0 0 C1.65 0 3.3 0 5 0 C5.18175781 0.84884766 5.18175781 0.84884766 5.3671875 1.71484375 C5.53476562 2.44832031 5.70234375 3.18179688 5.875 3.9375 C6.03742188 4.66839844 6.19984375 5.39929688 6.3671875 6.15234375 C6.82961523 8.20700294 6.82961523 8.20700294 9 9 C9 12.63 9 16.26 9 20 C6.77590298 16.66385446 6.07455749 13.85576511 5 10 C3.29354459 4.55343 3.29354459 4.55343 0 0 Z " fill="#A7C574" transform="translate(366,199)"/>
<path d="M0 0 C0.33 1.65 0.66 3.3 1 5 C0.34 5 -0.32 5 -1 5 C-1 5.66 -1 6.32 -1 7 C-2.66611905 7.042721 -4.33382885 7.04063832 -6 7 C-7 6 -7 6 -7.0625 3.4375 C-7.041875 2.633125 -7.02125 1.82875 -7 1 C-4.53721199 -0.231394 -2.7204945 -0.07159196 0 0 Z M-4 3 C-4 3.66 -4 4.32 -4 5 C-3.01 5 -2.02 5 -1 5 C-1 4.34 -1 3.68 -1 3 C-1.99 3 -2.98 3 -4 3 Z " fill="#659A58" transform="translate(287,194)"/>
<path d="M0 0 C0.33 0.66 0.66 1.32 1 2 C0.67 2.66 0.34 3.32 0 4 C-1.65 4 -3.3 4 -5 4 C-4.608125 4.9075 -4.21625 5.815 -3.8125 6.75 C-3 10 -3 10 -4.375 12.375 C-4.91125 12.91125 -5.4475 13.4475 -6 14 C-8 12 -8 12 -8.23046875 10.08984375 C-8.11111111 4.11111111 -8.11111111 4.11111111 -7 3 C-5.00041636 2.95919217 -2.99954746 2.95745644 -1 3 C-0.67 2.01 -0.34 1.02 0 0 Z " fill="#7DB934" transform="translate(387,216)"/>
<path d="M0 0 C1.9375 0.5 1.9375 0.5 4 2 C4.68790422 4.69658452 4.81946464 7.2017019 5 10 C3.68 10 2.36 10 1 10 C0.63883954 8.5225254 0.28624952 7.04295325 -0.0625 5.5625 C-0.25972656 4.73878906 -0.45695312 3.91507813 -0.66015625 3.06640625 C-0.82837891 2.04353516 -0.82837891 2.04353516 -1 1 C-0.67 0.67 -0.34 0.34 0 0 Z " fill="#7CB832" transform="translate(379,207)"/>
<path d="M0 0 C0.71115967 0.15847412 1.42231934 0.31694824 2.1550293 0.48022461 C4.97891634 0.99614802 7.65298992 1.20430687 10.51953125 1.31640625 C11.54111328 1.35830078 12.56269531 1.40019531 13.61523438 1.44335938 C15.19788086 1.50233398 15.19788086 1.50233398 16.8125 1.5625 C18.42415039 1.62727539 18.42415039 1.62727539 20.06835938 1.69335938 C22.71212082 1.79910983 25.3559711 1.90120233 28 2 C28 2.33 28 2.66 28 3 C18.1 3 8.2 3 -2 3 C-1.34 2.01 -0.68 1.02 0 0 Z " fill="#ADCE63" transform="translate(399,185)"/>
<path d="M0 0 C7.76785714 -0.66964286 7.76785714 -0.66964286 11.5 2.1875 C14 5 14 5 14.375 7.8125 C14.25125 8.534375 14.1275 9.25625 14 10 C10.22471696 8.74157232 9.89332955 7.37506571 8 4 C5.4345406 1.4345406 3.52313332 1.45953913 0 1 C0 0.67 0 0.34 0 0 Z " fill="#7BA360" transform="translate(308,210)"/>
<path d="M0 0 C0.66 0.33 1.32 0.66 2 1 C2 1.99 2 2.98 2 4 C2.99 4 3.98 4 5 4 C5.33 3.01 5.66 2.02 6 1 C6.66 1 7.32 1 8 1 C7.67 2.65 7.34 4.3 7 6 C4.69 6.33 2.38 6.66 0 7 C-1.125 2.25 -1.125 2.25 0 0 Z " fill="#5C973F" transform="translate(308,220)"/>
<path d="M0 0 C2.64 0 5.28 0 8 0 C8.33 1.32 8.66 2.64 9 4 C4.94568308 5.15837626 2.78187881 4.83691257 -1 3 C-0.67 2.01 -0.34 1.02 0 0 Z " fill="#5BA92A" transform="translate(337,189)"/>
<path d="M0 0 C-0.33 0.99 -0.66 1.98 -1 3 C-10.405 3.495 -10.405 3.495 -20 4 C-20.33 6.64 -20.66 9.28 -21 12 C-21.33 12 -21.66 12 -22 12 C-22.02689216 10.52093108 -22.04634621 9.04172517 -22.0625 7.5625 C-22.07410156 6.73878906 -22.08570313 5.91507813 -22.09765625 5.06640625 C-22 3 -22 3 -21 2 C-18.18369776 1.78855708 -15.38282201 1.62371843 -12.5625 1.5 C-8.29452578 1.31186073 -4.03065969 0 0 0 Z " fill="#6FA939" transform="translate(352,192)"/>
<path d="M0 0 C0.66 0 1.32 0 2 0 C3.05673293 3.1701988 2.98249206 4.82522786 2.66015625 8.10546875 C2.56669922 9.08837891 2.47324219 10.07128906 2.37695312 11.08398438 C2.27318359 12.10814453 2.16941406 13.13230469 2.0625 14.1875 C1.96259766 15.22326172 1.86269531 16.25902344 1.75976562 17.32617188 C1.51216403 19.88472167 1.25868955 22.44255142 1 25 C0.67 25 0.34 25 0 25 C0 16.75 0 8.5 0 0 Z " fill="#D7E8A7" transform="translate(410,198)"/>
<path d="M0 0 C0 1.98 0 3.96 0 6 C-0.99 6.495 -0.99 6.495 -2 7 C-2 7.66 -2 8.32 -2 9 C-2.66 9 -3.32 9 -4 9 C-6.125 4.375 -6.125 4.375 -5 1 C-3 0 -3 0 0 0 Z " fill="#449929" transform="translate(306,189)"/>
<path d="M0 0 C0.66 0.66 1.32 1.32 2 2 C1.42307692 8.57692308 1.42307692 8.57692308 0 10 C-1.68608966 10.07205511 -3.37500659 10.08386068 -5.0625 10.0625 C-5.98160156 10.05347656 -6.90070313 10.04445312 -7.84765625 10.03515625 C-8.55792969 10.02355469 -9.26820313 10.01195312 -10 10 C-10 9.34 -10 8.68 -10 8 C-6.7 7.67 -3.4 7.34 0 7 C0 4.69 0 2.38 0 0 Z " fill="#BFD675" transform="translate(434,188)"/>
<path d="M0 0 C0.66 0 1.32 0 2 0 C2 5.28 2 10.56 2 16 C1.34 15.67 0.68 15.34 0 15 C-0.44921875 11.875 -0.44921875 11.875 -0.6875 8 C-0.77386719 6.72125 -0.86023438 5.4425 -0.94921875 4.125 C-0.96597656 3.09375 -0.98273438 2.0625 -1 1 C-0.67 0.67 -0.34 0.34 0 0 Z " fill="#7FAA4F" transform="translate(363,203)"/>
<path d="M0 0 C1.65 0.33 3.3 0.66 5 1 C5 2.32 5 3.64 5 5 C4.01 5 3.02 5 2 5 C-0.21168225 7.94236782 -0.21168225 7.94236782 -2 11 C-2.66 10.67 -3.32 10.34 -4 10 C-4 9.34 -4 8.68 -4 8 C-3.34 8 -2.68 8 -2 8 C-2 7.34 -2 6.68 -2 6 C-1.34 6 -0.68 6 0 6 C0 4.02 0 2.04 0 0 Z " fill="#6A9A61" transform="translate(271,202)"/>
<path d="M0 0 C0.66 0.33 1.32 0.66 2 1 C2.45164525 8.11341265 1.32797915 12.71546794 -2 19 C-2.33 19 -2.66 19 -3 19 C-3.25 12.375 -3.25 12.375 -1 9 C-0.34 9 0.32 9 1 9 C0.67 6.03 0.34 3.06 0 0 Z " fill="#7B9E63" transform="translate(307,187)"/>
<path d="M0 0 C0.33 0 0.66 0 1 0 C1.08114106 1.77007714 1.13925505 3.54122098 1.1875 5.3125 C1.22230469 6.29863281 1.25710938 7.28476563 1.29296875 8.30078125 C1 11 1 11 -0.3203125 12.83203125 C-2.91547229 14.63657259 -4.93750668 14.39095659 -8 14 C-8.66 13.01 -9.32 12.02 -10 11 C-7.03 11 -4.06 11 -1 11 C-0.67 7.37 -0.34 3.74 0 0 Z " fill="#A3BD7C" transform="translate(365,222)"/>
<path d="M0 0 C2.31 0.33 4.62 0.66 7 1 C7 2.98 7 4.96 7 7 C5.68 7 4.36 7 3 7 C3 6.01 3 5.02 3 4 C2.34 4 1.68 4 1 4 C0.67 2.68 0.34 1.36 0 0 Z " fill="#5EA531" transform="translate(329,226)"/>
<path d="M0 0 C1.98 0 3.96 0 6 0 C6.042721 1.66611905 6.04063832 3.33382885 6 5 C5 6 5 6 2.4375 6.0625 C1.2309375 6.0315625 1.2309375 6.0315625 0 6 C0 4.02 0 2.04 0 0 Z " fill="#6DAF2A" transform="translate(357,228)"/>
<path d="M0 0 C2.1519437 3.22791555 2.20086443 4.28400809 2 8 C0.68 8 -0.64 8 -2 8 C-2.6875 5.6875 -2.6875 5.6875 -3 3 C-1.5625 1.1875 -1.5625 1.1875 0 0 Z " fill="#92BB43" transform="translate(386,208)"/>
<path d="M0 0 C1.91635217 -0.05423638 3.83314925 -0.09289963 5.75 -0.125 C7.35101563 -0.15980469 7.35101563 -0.15980469 8.984375 -0.1953125 C11.92470106 -0.00487687 13.52361878 0.47329896 16 2 C16 2.33 16 2.66 16 3 C10.22192976 3.2358396 5.48675196 2.86783046 0 1 C0 0.67 0 0.34 0 0 Z " fill="#77B07B" transform="translate(228,185)"/>
<path d="M0 0 C1.5625 1.1875 1.5625 1.1875 3 3 C2.75546876 6.34192692 2.39456443 7.60543557 0 10 C-2.1640625 10.1953125 -2.1640625 10.1953125 -4.625 10.125 C-5.44226563 10.10695312 -6.25953125 10.08890625 -7.1015625 10.0703125 C-7.72804688 10.04710937 -8.35453125 10.02390625 -9 10 C-9 9.67 -9 9.34 -9 9 C-4.545 8.505 -4.545 8.505 0 8 C0 5.36 0 2.72 0 0 Z " fill="#96B378" transform="translate(341,205)"/>
<path d="M0 0 C2.14699969 3.44175522 2.09856795 5.7720292 1.625 9.75 C1.51414063 10.73484375 1.40328125 11.7196875 1.2890625 12.734375 C1.19367188 13.48203125 1.09828125 14.2296875 1 15 C0.34 15 -0.32 15 -1 15 C-1.02693575 12.87506859 -1.04636628 10.75004088 -1.0625 8.625 C-1.07410156 7.44164062 -1.08570313 6.25828125 -1.09765625 5.0390625 C-1 2 -1 2 0 0 Z " fill="#306E40" transform="translate(213,209)"/>
<path d="M0 0 C0.99 0.33 1.98 0.66 3 1 C3.0825 1.94875 3.165 2.8975 3.25 3.875 C3.65074923 7.10461791 3.65074923 7.10461791 6.0625 8.375 C6.701875 8.58125 7.34125 8.7875 8 9 C2.25 8.125 2.25 8.125 0 7 C0 4.69 0 2.38 0 0 Z " fill="#236D3A" transform="translate(212,224)"/>
<path d="M0 0 C0.66 0.33 1.32 0.66 2 1 C2 3.31 2 5.62 2 8 C0.35 7.67 -1.3 7.34 -3 7 C-3 8.98 -3 10.96 -3 13 C-3.66 13 -4.32 13 -5 13 C-4.67 10.69 -4.34 8.38 -4 6 C-3.34 6 -2.68 6 -2 6 C-1.34 4.02 -0.68 2.04 0 0 Z " fill="#499140" transform="translate(274,195)"/>
<path d="M0 0 C0.66 0 1.32 0 2 0 C2 2.64 2 5.28 2 8 C0.02 8.99 0.02 8.99 -2 10 C-2.66 9.01 -3.32 8.02 -4 7 C-3.67 6.01 -3.34 5.02 -3 4 C-2.67 4.99 -2.34 5.98 -2 7 C-1.34 7 -0.68 7 0 7 C0 4.69 0 2.38 0 0 Z " fill="#8FC619" transform="translate(418,224)"/>
<path d="M0 0 C2.14336161 3.4766338 2.21277626 6.21229195 2.125 10.25 C2.10695313 11.32765625 2.08890625 12.4053125 2.0703125 13.515625 C2.03550781 14.74539062 2.03550781 14.74539062 2 16 C1.01 16.33 0.02 16.66 -1 17 C-1 15.35 -1 13.7 -1 12 C-0.34 12 0.32 12 1 12 C0.835 11.319375 0.67 10.63875 0.5 9.9375 C-0.07089059 6.5835178 -0.06659023 3.39610195 0 0 Z " fill="#73A652" transform="translate(321,208)"/>
<path d="M0 0 C0.66 1.65 1.32 3.3 2 5 C1.05125 4.938125 0.1025 4.87625 -0.875 4.8125 C-2.421875 4.9053125 -2.421875 4.9053125 -4 5 C-4.99 6.485 -4.99 6.485 -6 8 C-6.66 8 -7.32 8 -8 8 C-6.65580512 3.85539913 -4.87800266 0 0 0 Z " fill="#61967E" transform="translate(188,186)"/>
<path d="M0 0 C5.97897503 -0.74737188 9.32379721 1.6768102 14 5 C11.13312908 6.43343546 9.49436317 5.56303792 6.4375 4.75 C5.44621094 4.49734375 4.45492188 4.2446875 3.43359375 3.984375 C2.63050781 3.65953125 1.82742188 3.3346875 1 3 C0.67 2.01 0.34 1.02 0 0 Z " fill="#A6CA79" transform="translate(362,186)"/>
<path d="M0 0 C3.6875 1.375 3.6875 1.375 7 3 C7 4.32 7 5.64 7 7 C3.66666667 5.33333333 0.33333333 3.66666667 -3 2 C-2.01 1.34 -1.02 0.68 0 0 Z " fill="#B0CC77" transform="translate(390,185)"/>
<path d="M0 0 C-0.33 1.32 -0.66 2.64 -1 4 C-2.65 4 -4.3 4 -6 4 C-6.33 2.68 -6.66 1.36 -7 0 C-3.98968256 -0.93423645 -3.13349732 -1.04449911 0 0 Z " fill="#72B236" transform="translate(363,221)"/>
<path d="M0 0 C1.2065625 0.0309375 1.2065625 0.0309375 2.4375 0.0625 C2.4375 1.7125 2.4375 3.3625 2.4375 5.0625 C1.4475 4.4025 0.4575 3.7425 -0.5625 3.0625 C-0.8925 4.3825 -1.2225 5.7025 -1.5625 7.0625 C-2.2225 7.0625 -2.8825 7.0625 -3.5625 7.0625 C-3.60504356 5.06295254 -3.60330783 3.06208364 -3.5625 1.0625 C-2.5625 0.0625 -2.5625 0.0625 0 0 Z " fill="#588C5B" transform="translate(257.5625,223.9375)"/>
<path d="M0 0 C0 2.31 0 4.62 0 7 C-0.99 7.495 -0.99 7.495 -2 8 C-2.66 7.67 -3.32 7.34 -4 7 C-4 6.01 -4 5.02 -4 4 C-4.66 3.67 -5.32 3.34 -6 3 C-1.125 0 -1.125 0 0 0 Z " fill="#1C8530" transform="translate(253,225)"/>
<path d="M0 0 C0.99 0 1.98 0 3 0 C2.67 2.31 2.34 4.62 2 7 C1.01 7.33 0.02 7.66 -1 8 C-1.625 5.125 -1.625 5.125 -2 2 C-1.34 1.34 -0.68 0.68 0 0 Z " fill="#2B8C2B" transform="translate(265,204)"/>
<path d="M0 0 C0 0.99 0 1.98 0 3 C-2.64 3 -5.28 3 -8 3 C-8.33 3.66 -8.66 4.32 -9 5 C-9 3.35 -9 1.7 -9 0 C-3.375 -1.125 -3.375 -1.125 0 0 Z " fill="#568A67" transform="translate(199,195)"/>
<path d="M0 0 C0.66 0.33 1.32 0.66 2 1 C2 1.99 2 2.98 2 4 C-4.6 4 -11.2 4 -18 4 C-18 3.67 -18 3.34 -18 3 C-9.585 2.505 -9.585 2.505 -1 2 C-0.67 1.34 -0.34 0.68 0 0 Z " fill="#3C8346" transform="translate(242,191)"/>
<path d="M0 0 C1.32 0 2.64 0 4 0 C2.25 7.75 2.25 7.75 0 10 C-0.19412181 8.52168779 -0.38012131 7.04230684 -0.5625 5.5625 C-0.66691406 4.73878906 -0.77132812 3.91507813 -0.87890625 3.06640625 C-0.91886719 2.38449219 -0.95882812 1.70257813 -1 1 C-0.67 0.67 -0.34 0.34 0 0 Z " fill="#1E713B" transform="translate(213,189)"/>
<path d="M0 0 C0.66 0.33 1.32 0.66 2 1 C1.67 2.98 1.34 4.96 1 7 C0.34 6.34 -0.32 5.68 -1 5 C-3.60280568 5.32041397 -3.60280568 5.32041397 -6 6 C-6 5.34 -6 4.68 -6 4 C-4.35 3.67 -2.7 3.34 -1 3 C-0.67 2.01 -0.34 1.02 0 0 Z " fill="#8AB560" transform="translate(351,227)"/>
<path d="M0 0 C0.66 0.66 1.32 1.32 2 2 C1.625 5.125 1.625 5.125 1 8 C0.01 8.33 -0.98 8.66 -2 9 C-2.25 3.375 -2.25 3.375 0 0 Z " fill="#5D9840" transform="translate(302,206)"/>
<path d="M0 0 C1.98 0.99 1.98 0.99 4 2 C3.67 4.31 3.34 6.62 3 9 C2.01 9.33 1.02 9.66 0 10 C0 6.7 0 3.4 0 0 Z " fill="#488260" transform="translate(199,198)"/>
<path d="M0 0 C-3.68717438 2.45811625 -5.64345704 2.31118164 -10 2 C-10.99 1.34 -11.98 0.68 -13 0 C-11.58456585 -0.19658808 -10.16755969 -0.38187546 -8.75 -0.5625 C-7.96109375 -0.66691406 -7.1721875 -0.77132812 -6.359375 -0.87890625 C-3.99467126 -1.00027349 -2.2488963 -0.69633257 0 0 Z " fill="#9AB683" transform="translate(318,234)"/>
<path d="M0 0 C2.64 0 5.28 0 8 0 C7 2 7 2 4.0625 3.1875 C1 4 1 4 -1 3 C-0.67 2.01 -0.34 1.02 0 0 Z " fill="#669F45" transform="translate(306,211)"/>
<path d="M0 0 C-3.08888522 2.05925681 -3.70935927 2.2390374 -7.1875 2.125 C-9.0746875 2.063125 -9.0746875 2.063125 -11 2 C-11 1.34 -11 0.68 -11 0 C-7.01803543 -1.05404945 -4.01804691 -0.84098656 0 0 Z " fill="#407A58" transform="translate(207,213)"/>
<path d="M0 0 C2.0625 0.4375 2.0625 0.4375 4 1 C4 1.66 4 2.32 4 3 C4.66 3.33 5.32 3.66 6 4 C4.02 4.33 2.04 4.66 0 5 C-0.5625 3.0625 -0.5625 3.0625 -1 1 C-0.67 0.67 -0.34 0.34 0 0 Z " fill="#55A71E" transform="translate(334,207)"/>
<path d="M0 0 C-1.98 0.66 -3.96 1.32 -6 2 C-6.99 1.01 -7.98 0.02 -9 -1 C-5.22102349 -2.0497157 -3.35080929 -2.10976881 0 0 Z " fill="#779F70" transform="translate(273,235)"/>
<path d="M0 0 C1.32 0.33 2.64 0.66 4 1 C4.33 2.65 4.66 4.3 5 6 C3.68 6 2.36 6 1 6 C0.67 4.02 0.34 2.04 0 0 Z " fill="#65A839" transform="translate(339,227)"/>
<path d="M0 0 C0.66 0.66 1.32 1.32 2 2 C1 5 1 5 -1.0625 6.1875 C-1.701875 6.455625 -2.34125 6.72375 -3 7 C-3 5.68 -3 4.36 -3 3 C-2.34 3 -1.68 3 -1 3 C-0.67 2.01 -0.34 1.02 0 0 Z " fill="#5B9675" transform="translate(210,206)"/>
<path d="M0 0 C1.47906892 -0.02689216 2.95827483 -0.04634621 4.4375 -0.0625 C5.26121094 -0.07410156 6.08492187 -0.08570313 6.93359375 -0.09765625 C9 0 9 0 10 1 C10.04080783 2.99958364 10.04254356 5.00045254 10 7 C7 3.25 7 3.25 7 1 C4.69 1 2.38 1 0 1 C0 0.67 0 0.34 0 0 Z " fill="#5D8A63" transform="translate(223,204)"/>
<path d="M0 0 C2 2 2 2 2.125 4.625 C2.08375 5.40875 2.0425 6.1925 2 7 C0.68 6.67 -0.64 6.34 -2 6 C-2 4.35 -2 2.7 -2 1 C-1.34 0.67 -0.68 0.34 0 0 Z " fill="#8BB148" transform="translate(381,201)"/>
<path d="M0 0 C0.66 0 1.32 0 2 0 C1.67 1.98 1.34 3.96 1 6 C-0.65 6.33 -2.3 6.66 -4 7 C-3.34 5.68 -2.68 4.36 -2 3 C-1.34 3 -0.68 3 0 3 C0 2.01 0 1.02 0 0 Z " fill="#83AE79" transform="translate(276,188)"/>
<path d="M0 0 C1.98 0.495 1.98 0.495 4 1 C3.67 2.32 3.34 3.64 3 5 C2.01 5 1.02 5 0 5 C0 3.33333333 0 1.66666667 0 0 Z " fill="#27892C" transform="translate(261,189)"/>
<path d="M0 0 C1.36125 0.12375 1.36125 0.12375 2.75 0.25 C1.76 0.91 0.77 1.57 -0.25 2.25 C-0.91 2.806875 -1.57 3.36375 -2.25 3.9375 C-2.91 4.370625 -3.57 4.80375 -4.25 5.25 C-5.24 4.92 -6.23 4.59 -7.25 4.25 C-4.83923194 1.28290085 -3.90322061 0.30024774 0 0 Z " fill="#8FB45E" transform="translate(363.25,186.75)"/>
<path d="M0 0 C1 3 1 3 1 7 C-0.9375 6.6875 -0.9375 6.6875 -3 6 C-3.33 5.01 -3.66 4.02 -4 3 C-2.68 2.01 -1.36 1.02 0 0 Z " fill="#7AB91C" transform="translate(385,224)"/>
<path d="M0 0 C1.98 0 3.96 0 6 0 C6 0.66 6 1.32 6 2 C7.65 2 9.3 2 11 2 C11 2.33 11 2.66 11 3 C3.57142857 3.14285714 3.57142857 3.14285714 0 2 C0 1.34 0 0.68 0 0 Z " fill="#66A749" transform="translate(327,185)"/>
<path d="M0 0 C1.98 0 3.96 0 6 0 C5.67 0.99 5.34 1.98 5 3 C3.35 3.33 1.7 3.66 0 4 C0 2.68 0 1.36 0 0 Z " fill="#72AE3B" transform="translate(345,227)"/>
<path d="M0 0 C1.0625 1.8125 1.0625 1.8125 2 4 C1.67 4.99 1.34 5.98 1 7 C0.34 7 -0.32 7 -1 7 C-1.33 5.02 -1.66 3.04 -2 1 C-1.34 0.67 -0.68 0.34 0 0 Z " fill="#379829" transform="translate(293,223)"/>
<path d="M0 0 C1.11445498 2.22890995 1.16480286 3.53055106 1.1875 6 C1.20167969 6.70125 1.21585938 7.4025 1.23046875 8.125 C1 10 1 10 -1 12 C-2.42857143 3.42857143 -2.42857143 3.42857143 0 0 Z " fill="#2C7842" transform="translate(221,215)"/>
<path d="M0 0 C1.32 0 2.64 0 4 0 C6 3 6 3 5.625 5.1875 C5.41875 5.785625 5.2125 6.38375 5 7 C4.67 5.68 4.34 4.36 4 3 C2.68 2.67 1.36 2.34 0 2 C0 1.34 0 0.68 0 0 Z " fill="#2A793A" transform="translate(226,205)"/>
<path d="M0 0 C2.25245881 2.68841859 3.88213958 4.64641875 5 8 C3.68 7.67 2.36 7.34 1 7 C0.67 4.69 0.34 2.38 0 0 Z " fill="#A3C876" transform="translate(376,192)"/>
<path d="M0 0 C0.99 0.33 1.98 0.66 3 1 C3 2.65 3 4.3 3 6 C2.01 6 1.02 6 0 6 C0 4.02 0 2.04 0 0 Z " fill="#A7C178" transform="translate(352,188)"/>
<path d="M0 0 C2.64 0.33 5.28 0.66 8 1 C7.67 1.66 7.34 2.32 7 3 C4.69 3 2.38 3 0 3 C0 2.01 0 1.02 0 0 Z " fill="#61917B" transform="translate(190,185)"/>
<path d="M0 0 C5.94 0.99 5.94 0.99 12 2 C12 2.33 12 2.66 12 3 C8.37 3 4.74 3 1 3 C0.67 2.01 0.34 1.02 0 0 Z " fill="#568963" transform="translate(212,231)"/>
<path d="M0 0 C1.32 0.66 2.64 1.32 4 2 C3.67 3.32 3.34 4.64 3 6 C1.68 4.68 0.36 3.36 -1 2 C-0.67 1.34 -0.34 0.68 0 0 Z " fill="#548C53" transform="translate(261,228)"/>
<path d="M0 0 C2.475 0.99 2.475 0.99 5 2 C4.34 3.32 3.68 4.64 3 6 C2.34 5.67 1.68 5.34 1 5 C1.33 4.34 1.66 3.68 2 3 C1.01 3 0.02 3 -1 3 C-0.67 2.01 -0.34 1.02 0 0 Z " fill="#46B12D" transform="translate(310,218)"/>
<path d="M0 0 C0.66 0 1.32 0 2 0 C2 0.99 2 1.98 2 3 C1.34 3 0.68 3 0 3 C0 3.99 0 4.98 0 6 C-1.65 6 -3.3 6 -5 6 C-3.38405168 3.95880212 -1.7143618 1.95927063 0 0 Z " fill="#799E79" transform="translate(261,202)"/>
<path d="M0 0 C2.375 -0.1875 2.375 -0.1875 5 0 C5.66 0.99 6.32 1.98 7 3 C6.67 3.99 6.34 4.98 6 6 C5.34 5.01 4.68 4.02 4 3 C1.94074861 2.27617533 1.94074861 2.27617533 0 2 C0 1.34 0 0.68 0 0 Z " fill="#75A175" transform="translate(255,195)"/>
</svg>
